<svg width="110" height="137" viewBox="0 0 110 137" fill="none" xmlns="http://www.w3.org/2000/svg">
<g clip-path="url(#clip0_628_3313)">
<path d="M45.4646 111.689C45.2653 111.671 45.0669 111.731 44.9129 111.858C44.7589 111.984 44.662 112.165 44.6434 112.361C44.6434 112.361 44.5939 112.857 44.8432 113.37C45.0925 113.883 45.7078 114.427 46.6456 114.57C46.8434 114.6 47.0452 114.552 47.2067 114.435C47.3682 114.319 47.4762 114.144 47.5068 113.949C47.5374 113.753 47.4882 113.554 47.37 113.395C47.2518 113.236 47.0743 113.129 46.8766 113.099C46.3372 113.016 46.2691 112.859 46.2046 112.726C46.1401 112.593 46.1464 112.499 46.1464 112.499C46.1556 112.402 46.1453 112.304 46.116 112.21C46.0867 112.117 46.039 112.03 45.9757 111.955C45.9124 111.88 45.8346 111.817 45.7469 111.772C45.6592 111.726 45.5633 111.698 45.4646 111.689Z" fill="black"/>
<path d="M82.3717 11.5876C81.8022 11.5876 78.3388 11.6881 73.2445 11.8398C68.1502 11.9914 61.5152 12.1947 54.893 12.4009C48.2709 12.6072 41.6615 12.8162 36.6185 12.9799C34.097 13.0618 31.9673 13.1324 30.4227 13.1854C28.8781 13.2385 27.9792 13.2695 27.718 13.2872C25.2819 13.4511 23.4181 13.8323 22.1324 15.1305C20.8467 16.4288 20.3237 18.4428 20.1782 21.5443C20.1537 22.069 20.1905 23.4443 20.2623 25.7015C20.3341 27.9588 20.4459 31.0285 20.587 34.6932C20.8693 42.0227 21.2694 51.7314 21.7026 62.0663C21.7067 62.1641 21.7302 62.26 21.7719 62.3488C21.8135 62.4375 21.8725 62.5173 21.9455 62.5836C22.0184 62.6498 22.1038 62.7013 22.1969 62.7349C22.29 62.7686 22.3889 62.7839 22.488 62.7798C22.688 62.7717 22.8765 62.6854 23.0121 62.5401C23.1477 62.3948 23.2192 62.2024 23.2109 62.0051C22.7777 51.6708 22.3774 41.9625 22.0953 34.6365C21.9542 30.9735 21.8428 27.906 21.7713 25.6549C21.6997 23.4038 21.6731 21.8997 21.6865 21.6127C21.8254 18.6511 22.3409 17.0509 23.2125 16.1708C24.0841 15.2906 25.4964 14.9287 27.8215 14.7723C27.9157 14.766 28.9325 14.7261 30.4753 14.6731C32.0181 14.6201 34.1472 14.5497 36.6681 14.4679C41.71 14.3042 48.3191 14.0948 54.9407 13.8886C61.5623 13.6824 68.1966 13.4794 73.2898 13.3277C78.383 13.1761 82.0252 13.0762 82.3717 13.0762C83.5165 13.0762 84.3976 13.3573 85.0009 13.8856C85.6041 14.414 86.0001 15.2237 86.0455 16.5296C86.0489 16.6274 86.0717 16.7235 86.1128 16.8126C86.1539 16.9016 86.2123 16.9817 86.2848 17.0485C86.3573 17.1152 86.4423 17.1672 86.5352 17.2015C86.628 17.2358 86.7268 17.2517 86.8259 17.2483C87.026 17.2416 87.2151 17.1566 87.3517 17.0123C87.4883 16.868 87.5612 16.6761 87.5544 16.4787C87.4989 14.88 86.9528 13.6036 86.0031 12.7718C85.0534 11.94 83.7708 11.5869 82.3717 11.5869V11.5876ZM106.884 94.4574C106.419 94.4491 105.928 94.4786 105.414 94.5488C95.4509 95.9105 67.6691 100.3 55.2256 101.76C52.7092 102.056 51.0083 102.672 49.8457 103.601C48.6831 104.531 48.1337 105.755 47.8623 107.001C47.6562 107.949 47.5785 109.516 47.5412 111.513C47.5375 111.711 47.6135 111.901 47.7524 112.044C47.8913 112.186 48.0817 112.268 48.2819 112.271C48.482 112.275 48.6754 112.2 48.8196 112.063C48.9637 111.926 49.0468 111.738 49.0505 111.541C49.0872 109.575 49.1945 107.976 49.3383 107.314C49.5683 106.259 49.9436 105.441 50.7963 104.759C51.6493 104.077 53.0551 103.515 55.4043 103.24C67.9383 101.769 95.7174 97.3781 105.621 96.0244C107.393 95.7825 108.65 96.1089 109.507 96.6909C110.363 97.2729 110.854 98.131 111.008 99.1093C111.002 99.0685 111.022 99.235 111.038 99.4377C111.054 99.6405 111.074 99.921 111.098 100.266C111.147 100.957 111.21 101.908 111.282 103.034C111.426 105.287 111.607 108.241 111.784 111.226C111.96 114.212 112.131 117.23 112.256 119.61C112.381 121.99 112.455 123.815 112.448 124.125C112.432 124.853 112.224 125.259 111.876 125.555C111.528 125.851 110.962 126.052 110.157 126.089C96.8601 126.685 89.1519 128.411 88.9375 128.46C88.8739 128.463 66.4812 129.452 49.476 130.162C49.4513 129.63 49.3683 127.902 49.2621 124.852C49.2553 124.654 49.1692 124.468 49.0229 124.333C48.8766 124.198 48.6821 124.126 48.482 124.133C48.3829 124.136 48.2855 124.159 48.1952 124.2C48.105 124.24 48.0237 124.298 47.9561 124.369C47.8884 124.441 47.8357 124.525 47.801 124.616C47.7662 124.708 47.7501 124.805 47.7535 124.903C47.8598 127.957 47.9427 129.686 47.9677 130.223C39.3261 130.582 31.9652 130.87 30.8456 130.87C28.8049 130.87 27.6203 130.066 26.8413 128.937C26.0624 127.808 25.7545 126.298 25.7924 125.05V125.049C25.803 124.718 25.7772 123.941 25.7306 122.584C25.684 121.226 25.6132 119.354 25.5226 117.064C25.3412 112.484 25.0813 106.236 24.7809 99.1093C24.7768 99.0116 24.7533 98.9156 24.7115 98.8269C24.6698 98.7381 24.6108 98.6583 24.5379 98.5921C24.4649 98.5258 24.3794 98.4745 24.2863 98.4408C24.1932 98.4072 24.0943 98.392 23.9953 98.3961C23.7952 98.4044 23.6068 98.4906 23.4712 98.636C23.3357 98.7814 23.2643 98.9739 23.2727 99.1712C23.573 106.297 23.8328 112.545 24.014 117.122C24.1046 119.411 24.1755 121.281 24.222 122.634C24.2684 123.987 24.2872 124.887 24.2834 125.003C24.2834 125.003 24.2834 125.004 24.2834 125.004C24.2373 126.517 24.5762 128.3 25.5936 129.774C26.611 131.249 28.3724 132.359 30.8456 132.359C32.2476 132.359 39.6151 132.064 48.7837 131.683C65.9279 130.969 89.0617 129.945 89.0617 129.945C89.1077 129.943 89.1533 129.936 89.1981 129.926C89.1981 129.926 96.8485 128.176 110.226 127.576C111.251 127.53 112.171 127.269 112.861 126.682C113.551 126.095 113.934 125.197 113.957 124.158C113.97 123.586 113.888 121.918 113.763 119.533C113.638 117.147 113.467 114.127 113.291 111.139C113.114 108.151 112.933 105.196 112.788 102.94C112.716 101.812 112.653 100.859 112.604 100.163C112.58 99.8153 112.559 99.5318 112.542 99.321C112.526 99.1101 112.521 99.014 112.5 98.8804C112.289 97.5467 111.576 96.2896 110.363 95.4649C109.453 94.8464 108.281 94.4827 106.884 94.458L106.884 94.4574Z" fill="black"/>
<mask id="mask0_628_3313" style="mask-type:luminance" maskUnits="userSpaceOnUse" x="-284" y="-699" width="418" height="2180">
<path d="M133.395 1480.07L133.395 -698.492H-283.905L-283.905 1480.07H133.395Z" fill="white"/>
</mask>
<g mask="url(#mask0_628_3313)">
<path fill-rule="evenodd" clip-rule="evenodd" d="M47.1852 124.587C47.1852 124.587 40.9333 130.688 40.2822 131.05C39.6327 131.412 37.0653 131.823 34.715 129.208C33.7745 128.162 33.7812 127.02 34.8479 125.656C35.3392 125.027 37.7737 122.18 37.7737 122.18C36.532 118.859 39.3249 115.553 42.5114 114.988C43.6992 114.291 49.2816 110.897 50.1564 110.464C51.0178 110.035 52.4681 109.675 54.3356 111.449C55.9053 112.943 55.4847 114.492 54.4349 116.006C54.1186 116.462 50.222 120.857 50.222 120.857C50.0959 121.441 49.8368 122.044 49.4178 122.653C49.4178 122.653 50.4542 123.37 50.0706 123.843C49.687 124.318 49.0561 124.992 48.7802 124.98C48.5026 124.97 47.7404 124.316 47.7404 124.316C47.5688 124.414 47.3821 124.505 47.1852 124.587Z" fill="#FD7E14"/>
</g>
<path d="M13.5558 61.1888C11.4772 61.1872 9.74805 61.2073 8.49925 61.2452C6.28048 61.3121 3.96677 63.339 4.10912 66.5222C4.11855 66.7308 4.096 68.3437 4.06016 70.5471C4.02434 72.7506 3.98067 75.6369 3.96487 78.7089C3.93327 84.8529 4.00542 91.706 4.49655 95.4497C4.72489 97.1896 5.41988 98.4376 6.45403 99.1878C7.48817 99.938 8.76598 100.171 10.0913 100.193C10.3267 100.197 11.0193 100.18 12.3304 100.153C13.6416 100.125 15.4689 100.085 17.6419 100.035C21.988 99.9359 27.7172 99.7984 33.4654 99.6504C39.2137 99.5023 44.9806 99.3436 49.4033 99.2014C51.6146 99.1303 53.4893 99.0632 54.8607 99.0036C55.5464 98.9738 56.106 98.946 56.5228 98.92C56.9395 98.894 57.1259 98.8961 57.4018 98.8338C58.7685 98.5257 59.9632 97.8455 60.8143 96.9487C61.6654 96.0518 62.1879 94.9055 62.0571 93.7124C62.0356 93.5161 61.9359 93.3362 61.78 93.2124C61.6241 93.0886 61.4247 93.0309 61.2257 93.0521C61.0267 93.0733 60.8444 93.1716 60.7189 93.3255C60.5934 93.4793 60.5349 93.6759 60.5564 93.8723C60.6292 94.5364 60.3374 95.2723 59.7122 95.9311C59.087 96.5899 58.1432 97.1388 57.0653 97.3818C57.1601 97.3604 56.8266 97.4087 56.4271 97.4337C56.0277 97.4586 55.4746 97.4864 54.7943 97.516C53.4337 97.5751 51.5622 97.6418 49.354 97.7128C44.9375 97.8548 39.1724 98.0134 33.426 98.1614C27.6796 98.3094 21.9514 98.447 17.6068 98.5466C15.4345 98.5963 13.6081 98.6365 12.2985 98.6639C10.9894 98.6913 10.0948 98.7041 10.116 98.7044C8.95804 98.6851 8.01684 98.4735 7.3475 97.988C6.67822 97.5025 6.1853 96.7237 5.993 95.2588C5.53021 91.7309 5.44231 84.8421 5.47381 78.7167C5.48962 75.6539 5.53332 72.7735 5.5691 70.5714C5.60491 68.3696 5.63847 66.9383 5.61675 66.4564C5.50692 63.9966 7.22737 62.7737 8.54492 62.7342C13.4323 62.5856 26.1391 62.7214 38.0833 63.3319C44.0554 63.6372 49.8443 64.0615 54.3711 64.6241C56.6345 64.9054 58.5837 65.222 60.0661 65.5691C61.5484 65.9161 62.5838 66.3572 62.8608 66.5958C62.9355 66.6601 63.0223 66.7093 63.1163 66.7406C63.2103 66.7718 63.3096 66.7845 63.4085 66.7779C63.5074 66.7712 63.604 66.7455 63.6929 66.702C63.7817 66.6585 63.861 66.5981 63.9262 66.5244C63.9913 66.4507 64.0412 66.3651 64.0728 66.2725C64.1044 66.1798 64.1172 66.0818 64.1104 65.9843C64.1037 65.8867 64.0775 65.7915 64.0335 65.7039C63.9894 65.6163 63.9282 65.5381 63.8535 65.4738C63.1152 64.838 61.9846 64.4876 60.4147 64.12C58.8448 63.7525 56.8558 63.4318 54.56 63.1465C49.9685 62.5759 44.1553 62.151 38.1615 61.8446C29.1707 61.3851 19.7904 61.1926 13.5548 61.1891L13.5558 61.1888Z" fill="black"/>
<path d="M73.4001 85.3295C73.2025 85.361 73.0257 85.4686 72.9085 85.6287C72.7913 85.7888 72.7434 85.9882 72.7753 86.1832C72.8071 86.3782 72.9162 86.5527 73.0784 86.6683C73.0784 86.6683 73.4648 86.9232 74.011 87.0201C74.5572 87.117 75.3281 87.0994 76.2675 86.7562C76.3605 86.7222 76.4457 86.6705 76.5184 86.6041C76.5911 86.5376 76.6498 86.4576 76.6912 86.3687C76.7326 86.2799 76.7558 86.1838 76.7596 86.0861C76.7633 85.9884 76.7475 85.8909 76.7131 85.7992C76.6787 85.7075 76.6262 85.6234 76.5589 85.5517C76.4915 85.48 76.4104 85.422 76.3204 85.3812C76.2303 85.3404 76.1329 85.3175 76.0339 85.3138C75.9348 85.3101 75.836 85.3257 75.7431 85.3596C75.0336 85.6189 74.5622 85.6049 74.2782 85.5545C73.9941 85.5041 73.9624 85.4611 73.9624 85.4611C73.882 85.4038 73.791 85.3627 73.6945 85.3401C73.598 85.3175 73.498 85.3139 73.4001 85.3295Z" fill="black"/>
<mask id="mask1_628_3313" style="mask-type:luminance" maskUnits="userSpaceOnUse" x="-284" y="-699" width="418" height="2180">
<path d="M133.395 1480.07L133.395 -698.492H-283.905L-283.905 1480.07H133.395Z" fill="white"/>
</mask>
<g mask="url(#mask1_628_3313)">
<path fill-rule="evenodd" clip-rule="evenodd" d="M72.0129 69.4238C72.1997 72.355 71.4745 75.6645 69.9485 77.8969C72.8255 77.1085 74.6812 77.1318 74.6812 79.7824C74.6812 80.8729 74.4272 91.3561 74.2371 92.2972C74.0453 93.2383 72.0768 94.425 67.0379 95.1139C63.3399 95.6184 59.5931 95.3147 59.2566 94.3304C58.5601 92.2938 57.1199 83.6099 57.2427 81.7792C57.3084 80.79 59.159 79.9219 61.2907 79.5634C58.6745 74.1923 58.4507 70.3267 59.1018 68.3897C60.2291 65.0303 65.6465 60.9605 69.5414 63.6925C69.7265 63.8236 69.9031 63.9714 70.068 64.134C70.2867 62.9523 72.9248 59.2095 75.8926 63.3623C78.4297 66.9142 75.26 69.9533 72.0129 69.4238Z" fill="#FD7E14"/>
</g>
<mask id="mask2_628_3313" style="mask-type:luminance" maskUnits="userSpaceOnUse" x="-284" y="-699" width="418" height="2180">
<path d="M133.395 1480.07L133.395 -698.492H-283.905L-283.905 1480.07H133.395Z" fill="white"/>
</mask>
<g mask="url(#mask2_628_3313)">
<path fill-rule="evenodd" clip-rule="evenodd" d="M87.7017 50.9355C86.3237 51.4417 85.9923 50.6218 85.8695 49.8268C85.7483 49.0317 85.7281 46.0308 86.4566 45.6358C87.922 44.8408 97.5675 42.7478 100.399 42.8175C101.864 42.8524 101.451 44.7711 101.4 47.4433C101.392 47.9247 101.158 48.7628 99.2028 48.8109C96.2737 48.8823 89.1974 50.3861 87.7017 50.9355Z" fill="#FD7E14"/>
</g>
<mask id="mask3_628_3313" style="mask-type:luminance" maskUnits="userSpaceOnUse" x="-284" y="-699" width="418" height="2180">
<path d="M133.395 1480.07L133.395 -698.492H-283.905L-283.905 1480.07H133.395Z" fill="white"/>
</mask>
<g mask="url(#mask3_628_3313)">
<path fill-rule="evenodd" clip-rule="evenodd" d="M92.5146 125.108C91.1367 125.614 90.8053 124.794 90.6825 123.999C90.5613 123.204 90.5411 120.203 91.2696 119.808C92.735 119.013 102.38 116.92 105.212 116.99C106.677 117.025 106.264 118.943 106.213 121.616C106.205 122.097 105.971 122.935 104.016 122.983C101.087 123.055 94.0103 124.558 92.5146 125.108Z" fill="#FD7E14"/>
</g>
<mask id="mask4_628_3313" style="mask-type:luminance" maskUnits="userSpaceOnUse" x="-284" y="-699" width="418" height="2180">
<path d="M133.395 1480.07L133.395 -698.492H-283.905L-283.905 1480.07H133.395Z" fill="white"/>
</mask>
<g mask="url(#mask4_628_3313)">
<path fill-rule="evenodd" clip-rule="evenodd" d="M17.1017 94.2311C15.6659 94.544 15.4529 93.6866 15.443 92.8824C15.4348 92.0785 15.8365 89.1038 16.6134 88.8122C18.1764 88.2253 28.0228 87.4718 30.8173 87.9281C32.2636 88.163 31.5841 90.0066 31.1586 92.6461C31.0826 93.1217 30.7332 93.9197 28.7904 93.7C25.8795 93.3701 18.6601 93.8916 17.1017 94.2311Z" fill="#FD7E14"/>
</g>
<path d="M105.09 12.3041C104.522 12.2855 103.918 12.3345 103.285 12.4542C96.3363 13.7709 86.4738 15.8026 78.1889 17.5234C74.0465 18.3837 70.2986 19.1664 67.5097 19.7423C66.1153 20.0303 64.9605 20.2668 64.1175 20.4351C63.2746 20.6034 62.6681 20.71 62.6421 20.7129C61.0941 20.885 59.962 21.2221 59.1205 21.7137C58.2788 22.2053 57.7449 22.8748 57.4762 23.5689C56.9388 24.9572 57.3096 26.3473 57.3007 27.0924C57.2995 27.1902 57.3179 27.2872 57.3547 27.378C57.3916 27.4688 57.4462 27.5516 57.5155 27.6215C57.5847 27.6915 57.6673 27.7472 57.7584 27.7857C57.8496 27.8242 57.9475 27.8446 58.0466 27.8458C58.1457 27.8469 58.2441 27.8288 58.3361 27.7925C58.4282 27.7561 58.5121 27.7022 58.583 27.6338C58.6539 27.5655 58.7105 27.4841 58.7495 27.3942C58.7885 27.3043 58.8091 27.2077 58.8103 27.1099C58.8233 26.0176 58.5722 24.9121 58.8865 24.0999C59.0437 23.6939 59.3039 23.3371 59.8894 22.9951C60.4749 22.6532 61.4028 22.3494 62.812 22.1928C62.8126 22.1928 62.8131 22.1928 62.8137 22.1928C63.101 22.1604 63.568 22.0645 64.4176 21.8949C65.2672 21.7253 66.424 21.4885 67.8199 21.2002C70.6118 20.6236 74.359 19.841 78.5005 18.9809C86.7834 17.2605 96.6443 15.229 103.571 13.9166C105.741 13.506 107.023 13.9807 107.902 15.1105C108.781 16.2403 109.228 18.2125 109.113 20.8225C109.085 21.4545 108.737 27.7064 108.407 34.0482C108.241 37.2192 108.079 40.4231 107.963 42.9871C107.846 45.5511 107.771 47.4226 107.788 48.1217C107.813 49.1222 107.467 49.756 106.784 50.2759C106.101 50.7957 105.024 51.1525 103.686 51.2759C103.002 51.339 100.805 51.7112 97.5104 52.2861C94.2155 52.861 89.9308 53.6303 85.4419 54.4587C76.4641 56.1154 66.6901 58.0015 62.3329 59.0484C61.0542 59.3553 60.212 59.1509 59.6417 58.6967C59.0714 58.2424 58.7053 57.4545 58.6625 56.3542C58.5843 54.344 58.6714 49.375 58.6714 49.375C58.6749 49.1776 58.5988 48.9869 58.4599 48.8449C58.3209 48.7028 58.1305 48.6209 57.9304 48.6174C57.7303 48.6138 57.5369 48.6888 57.3928 48.8259C57.2487 48.963 57.1658 49.1509 57.1621 49.3484C57.1621 49.3484 57.0709 54.2686 57.1542 56.4112C57.209 57.8171 57.7061 59.0691 58.6937 59.8556C59.6813 60.6421 61.0916 60.8791 62.6899 60.4955C66.9468 59.4727 76.7505 57.5777 85.7192 55.9227C90.2036 55.0952 94.4846 54.3261 97.773 53.7523C101.061 53.1786 103.465 52.792 103.826 52.7587C105.35 52.6182 106.696 52.2234 107.706 51.4549C108.716 50.6863 109.332 49.4952 109.297 48.0857C109.285 47.579 109.354 45.6119 109.47 43.0539C109.587 40.4958 109.749 37.294 109.914 34.1247C110.245 27.7863 110.589 21.62 110.621 20.8877C110.745 18.0868 110.324 15.7792 109.099 14.2044C108.181 13.0233 106.794 12.3599 105.09 12.3041H105.09Z" fill="black"/>
<path d="M45.1764 29.8311C45.0774 29.8364 44.9804 29.8608 44.891 29.903C44.8015 29.9452 44.7214 30.0044 44.6552 30.0772C44.5889 30.1499 44.5379 30.2348 44.5049 30.3271C44.4719 30.4193 44.4577 30.517 44.463 30.6147C44.4683 30.7123 44.4931 30.808 44.5358 30.8962C44.5786 30.9844 44.6386 31.0635 44.7124 31.1288C44.7124 31.1288 45.6209 31.9334 46.9935 31.9334C47.1937 31.9334 47.3857 31.855 47.5273 31.7153C47.6688 31.5757 47.7483 31.3863 47.7483 31.1888C47.7483 30.9913 47.6688 30.8019 47.5272 30.6623C47.3857 30.5226 47.1937 30.4442 46.9935 30.4442C46.1991 30.4442 45.7212 30.0208 45.7212 30.0208C45.6474 29.9554 45.5614 29.905 45.4679 29.8725C45.3744 29.8399 45.2753 29.8259 45.1764 29.8311Z" fill="black"/>
<mask id="mask5_628_3313" style="mask-type:luminance" maskUnits="userSpaceOnUse" x="-284" y="-699" width="418" height="2180">
<path d="M133.395 1480.07L133.395 -698.492H-283.905L-283.905 1480.07H133.395Z" fill="white"/>
</mask>
<g mask="url(#mask5_628_3313)">
<path fill-rule="evenodd" clip-rule="evenodd" d="M69.0838 41.3802C69.1108 41.3735 69.1377 41.3668 69.1646 41.3585C71.0439 40.8938 71.7707 41.5162 71.7909 42.4241C71.8144 43.5976 72.3512 47.5362 70.7411 47.845C61.5953 49.5911 52.9879 55.0418 49.9966 57.7821C48.7179 58.9522 46.8453 56.5721 46.1858 55.1264C45.851 54.3895 46.2447 53.4866 47.3349 52.3397C43.43 43.9511 41.8535 30.5003 50.7452 26.8986C63.4712 21.74 68.3789 38.1452 69.0838 41.3802Z" fill="#FD7E14"/>
</g>
<path d="M99.5339 20.5601C92.5364 21.6867 70.5551 27.2074 70.5551 27.2074C70.4591 27.2314 70.3687 27.274 70.2893 27.3325C70.2099 27.391 70.1429 27.4644 70.0922 27.5484C70.0415 27.6325 70.0081 27.7256 69.9939 27.8223C69.9797 27.9191 69.9849 28.0177 70.0093 28.1125C70.0337 28.2073 70.0768 28.2964 70.1361 28.3747C70.1954 28.4531 70.2698 28.5192 70.355 28.5692C70.4402 28.6192 70.5345 28.6521 70.6326 28.6662C70.7308 28.6802 70.8307 28.675 70.9268 28.6509C70.9268 28.6509 93.0627 23.1109 99.777 22.03C99.9746 21.9981 100.151 21.8902 100.268 21.7299C100.385 21.5695 100.433 21.37 100.4 21.1751C100.368 20.9802 100.259 20.8059 100.096 20.6905C99.9337 20.5752 99.7315 20.5283 99.5339 20.5601Z" fill="black"/>
<path d="M88.693 30.042C80.1738 31.9998 70.5552 34.4122 70.5552 34.4122C70.4591 34.4363 70.3687 34.4788 70.2893 34.5373C70.2098 34.5959 70.1428 34.6692 70.0921 34.7533C70.0414 34.8374 70.0081 34.9305 69.9939 35.0273C69.9797 35.1242 69.9849 35.2228 70.0094 35.3176C70.0338 35.4124 70.077 35.5015 70.1363 35.5799C70.1957 35.6582 70.2701 35.7243 70.3553 35.7742C70.4405 35.8242 70.5349 35.8572 70.633 35.8712C70.7311 35.8852 70.8311 35.8799 70.9272 35.8558C70.9272 35.8558 80.5385 33.445 89.0354 31.4924C89.2304 31.4476 89.3993 31.3282 89.5051 31.1606C89.6108 30.9929 89.6447 30.7906 89.5993 30.5983C89.5539 30.406 89.4329 30.2393 89.263 30.1349C89.093 30.0306 88.888 29.9972 88.693 30.042Z" fill="black"/>
<path d="M88.6905 36.3942C80.6481 38.2668 72.2693 40.3673 72.2693 40.3673C72.1732 40.3914 72.0828 40.4339 72.0034 40.4924C71.924 40.5509 71.857 40.6243 71.8063 40.7084C71.7556 40.7924 71.7222 40.8855 71.708 40.9823C71.6938 41.0791 71.699 41.1777 71.7234 41.2724C71.7478 41.3672 71.7909 41.4563 71.8502 41.5347C71.9096 41.6131 71.9839 41.6791 72.0691 41.7291C72.1543 41.7791 72.2487 41.8121 72.3468 41.8261C72.4449 41.8402 72.5448 41.835 72.6409 41.8109C72.6409 41.8109 81.0126 39.7122 89.0375 37.8436C89.2323 37.7983 89.4009 37.6784 89.5061 37.5105C89.6114 37.3425 89.6447 37.1401 89.5987 36.9479C89.576 36.8527 89.5344 36.7629 89.4764 36.6836C89.4185 36.6042 89.3452 36.5369 89.2609 36.4855C89.1765 36.4341 89.0827 36.3995 88.9849 36.3839C88.887 36.3682 88.787 36.3717 88.6905 36.3942Z" fill="black"/>
<path d="M53.9712 25.9323C52.8406 25.8574 51.7027 26.0855 50.6146 26.6325H50.6129C50.5128 26.682 50.4241 26.7337 50.3447 26.7826C50.3442 26.7826 50.3436 26.7826 50.3431 26.7826C48.3466 28.0182 47.0455 31.1595 46.6735 35.3341C46.3016 39.5086 46.98 44.7502 49.5193 50.1551C49.6034 50.3343 49.7563 50.4731 49.9443 50.5411C50.1322 50.6091 50.3398 50.6006 50.5215 50.5175C50.7031 50.4345 50.8438 50.2836 50.9127 50.0982C50.9816 49.9128 50.973 49.7079 50.8888 49.5288C48.4633 44.3659 47.8291 39.3725 48.1772 35.4644C48.5253 31.5572 49.9762 28.7685 51.1442 28.0446C51.1985 28.0112 51.2471 27.9838 51.2874 27.9639C51.2894 27.9629 51.2914 27.9619 51.2933 27.9609C53.6276 26.7848 55.9586 27.3161 58.1894 29.7591C60.4201 32.2021 62.3743 36.6252 63.3333 42.9632C63.3479 43.0599 63.3817 43.1528 63.4327 43.2367C63.4838 43.3205 63.5511 43.3936 63.6307 43.4518C63.7104 43.51 63.8009 43.5521 63.8971 43.5758C63.9933 43.5994 64.0932 43.6042 64.1913 43.5898C64.3892 43.5606 64.5673 43.455 64.6864 43.2962C64.8054 43.1375 64.8557 42.9387 64.8261 42.7434C63.8385 36.2163 61.8482 31.541 59.3109 28.7623C57.7251 27.0256 55.857 26.0566 53.9691 25.9316L53.9712 25.9323Z" fill="black"/>
<path d="M50.952 26.6984C50.8566 26.6716 50.7569 26.6636 50.6584 26.6749C50.5599 26.6861 50.4646 26.7163 50.3779 26.7639C50.203 26.86 50.074 27.0206 50.0191 27.2106C49.9643 27.4005 49.9881 27.6041 50.0855 27.7766C50.0855 27.7766 54.5419 35.6899 56.0788 45.9539C56.1082 46.1492 56.2149 46.325 56.3756 46.4427C56.5363 46.5604 56.7378 46.6103 56.9358 46.5815C57.1338 46.5525 57.3121 46.4472 57.4314 46.2886C57.5507 46.1301 57.6013 45.9313 57.572 45.736C55.9898 35.1697 51.4048 27.0528 51.4048 27.0528C51.3566 26.9673 51.2918 26.892 51.2141 26.8312C51.1364 26.7704 51.0474 26.7253 50.952 26.6984Z" fill="black"/>
<path d="M68.9806 40.6364C65.5585 41.4854 61.9771 42.6949 58.6007 44.1913C58.5103 44.2314 58.4287 44.2886 58.3607 44.3598C58.2927 44.431 58.2396 44.5147 58.2044 44.6061C58.1692 44.6975 58.1526 44.7949 58.1555 44.8927C58.1584 44.9904 58.1809 45.0866 58.2215 45.1758C58.2621 45.265 58.3202 45.3455 58.3923 45.4126C58.4644 45.4796 58.5493 45.532 58.6419 45.5668C58.7346 45.6015 58.8333 45.6179 58.9324 45.615C59.0315 45.6121 59.1291 45.59 59.2195 45.5499C62.509 44.092 66.014 42.9079 69.3486 42.0806C69.4448 42.0568 69.5352 42.0145 69.6148 41.9562C69.6944 41.8979 69.7616 41.8246 69.8125 41.7407C69.8634 41.6568 69.897 41.5638 69.9114 41.467C69.9259 41.3703 69.9209 41.2716 69.8967 41.1768C69.8479 40.9853 69.7239 40.8208 69.5521 40.7195C69.3803 40.6181 69.1747 40.5882 68.9806 40.6364ZM57.0642 45.1385C56.9701 45.1076 56.8708 45.0953 56.7719 45.1022C56.673 45.1092 56.5765 45.1353 56.4878 45.1791C52.884 46.9584 49.6189 49.0648 47.171 51.4386C47.0282 51.577 46.9471 51.7657 46.9453 51.9632C46.9436 52.1606 47.0214 52.3507 47.1617 52.4915C47.302 52.6323 47.4933 52.7123 47.6934 52.7141C47.8936 52.7158 48.0862 52.6391 48.229 52.5007C50.5154 50.2835 53.6606 48.2403 57.1634 46.5109C57.3424 46.4225 57.4784 46.2675 57.5417 46.0801C57.6049 45.8927 57.5901 45.6884 57.5005 45.5118C57.4109 45.3352 57.254 45.2009 57.0642 45.1385Z" fill="black"/>
<path d="M48.2302 50.5516C48.0405 50.6145 47.8839 50.7491 47.7948 50.9259C47.7057 51.1026 47.6914 51.3071 47.755 51.4943C47.755 51.4943 48.0187 52.2709 48.448 53.1833C48.8774 54.0957 49.434 55.156 50.2583 55.8418C50.3341 55.9049 50.4217 55.9526 50.5162 55.9822C50.6107 56.0118 50.7102 56.0228 50.8089 56.0145C50.9077 56.0062 51.0039 55.9787 51.0919 55.9337C51.1799 55.8888 51.2581 55.8271 51.322 55.7524C51.451 55.6014 51.5139 55.4061 51.497 55.2094C51.48 55.0127 51.3846 54.8306 51.2316 54.7033C50.7891 54.3352 50.2086 53.3879 49.8173 52.5563C49.426 51.7247 49.1861 51.0204 49.1861 51.0204C49.1545 50.9277 49.1048 50.842 49.0397 50.7682C48.9745 50.6945 48.8953 50.6342 48.8065 50.5907C48.7178 50.5471 48.6212 50.5213 48.5223 50.5146C48.4234 50.5079 48.3241 50.5205 48.2302 50.5516Z" fill="black"/>
<path d="M53.2693 46.9566C53.1727 46.9785 53.0814 47.0191 53.0007 47.0758C52.9199 47.1326 52.8513 47.2044 52.7988 47.2873C52.7462 47.3702 52.7107 47.4625 52.6943 47.5589C52.6778 47.6554 52.6808 47.7541 52.7031 47.8494C52.7031 47.8494 52.8879 48.6438 53.2177 49.5847C53.5475 50.5256 53.9788 51.6175 54.7115 52.3645C54.8507 52.5064 55.0413 52.5881 55.2415 52.5913C55.4416 52.5946 55.6349 52.5193 55.7788 52.382C55.9227 52.2447 56.0054 52.0567 56.0087 51.8592C56.0121 51.6617 55.9357 51.471 55.7965 51.3291C55.4223 50.9475 54.9456 49.9573 54.6445 49.0981C54.3433 48.239 54.1742 47.5155 54.1742 47.5155C54.152 47.4202 54.111 47.3301 54.0535 47.2504C53.996 47.1707 53.9231 47.103 53.8391 47.0511C53.7551 46.9992 53.6615 46.9641 53.5637 46.9479C53.4659 46.9317 53.3659 46.9347 53.2693 46.9566Z" fill="black"/>
<path d="M61.0287 43.3812C60.8403 43.3146 60.6327 43.3247 60.4517 43.4091C60.2708 43.4935 60.1312 43.6453 60.0637 43.8313C59.9962 44.0172 60.0064 44.2219 60.0919 44.4004C60.0919 44.4004 60.4685 45.1868 60.8684 46.1523C61.2683 47.1177 61.6832 48.303 61.7553 48.8546C61.7679 48.9516 61.7998 49.0452 61.8491 49.1301C61.8985 49.2149 61.9642 49.2893 62.0427 49.3491C62.1212 49.4088 62.2109 49.4527 62.3065 49.4783C62.4022 49.5039 62.5021 49.5106 62.6004 49.4981C62.799 49.4728 62.9792 49.3707 63.1014 49.2144C63.2237 49.058 63.278 48.8602 63.2524 48.6643C63.1327 47.7486 62.6828 46.5952 62.2659 45.5889C61.849 44.5824 61.4566 43.7641 61.4566 43.7641C61.3711 43.5855 61.2172 43.4478 61.0287 43.3812Z" fill="black"/>
<path d="M66.2433 41.5401C66.0552 41.4725 65.8477 41.4814 65.6662 41.5647C65.5764 41.606 65.4956 41.6643 65.4286 41.7364C65.3616 41.8084 65.3096 41.8928 65.2757 41.9847C65.2417 42.0766 65.2264 42.1741 65.2307 42.2718C65.2349 42.3695 65.2587 42.4655 65.3005 42.5541C65.3005 42.5541 66.3764 44.8897 66.4808 47.0767C66.4855 47.1744 66.5096 47.2702 66.5519 47.3587C66.5941 47.4471 66.6536 47.5266 66.7269 47.5924C66.8002 47.6582 66.886 47.709 66.9793 47.7422C67.0725 47.7753 67.1715 47.79 67.2705 47.7854C67.3695 47.7807 67.4666 47.7569 67.5563 47.7152C67.646 47.6736 67.7265 47.615 67.7932 47.5426C67.8599 47.4703 67.9115 47.3857 67.9451 47.2937C67.9786 47.2016 67.9935 47.104 67.9888 47.0064C67.8644 44.4033 66.6691 41.9255 66.6691 41.9255C66.6273 41.8368 66.5681 41.7571 66.4951 41.691C66.422 41.6249 66.3364 41.5736 66.2433 41.5401Z" fill="black"/>
<path d="M45.6184 27.1099C44.9889 27.0745 44.5248 27.1777 44.5248 27.1777C44.4279 27.198 44.3359 27.2369 44.2542 27.2923C44.1725 27.3477 44.1026 27.4184 44.0486 27.5004C43.9946 27.5824 43.9575 27.6741 43.9394 27.7702C43.9213 27.8664 43.9226 27.9651 43.9432 28.0608C43.9638 28.1564 44.0033 28.2471 44.0594 28.3277C44.1155 28.4083 44.1872 28.4773 44.2703 28.5306C44.3534 28.5839 44.4464 28.6204 44.5438 28.6383C44.6413 28.6561 44.7414 28.6549 44.8383 28.6345C44.8383 28.6345 45.3929 28.5291 45.9648 28.6543C46.5367 28.7795 47.0296 28.9911 47.2411 29.9656C47.2618 30.0613 47.3014 30.152 47.3577 30.2325C47.4139 30.313 47.4857 30.3819 47.5689 30.435C47.6521 30.4882 47.7451 30.5246 47.8426 30.5423C47.9401 30.56 48.0402 30.5586 48.1372 30.5381C48.3329 30.4967 48.504 30.3804 48.6127 30.2146C48.7215 30.0488 48.7591 29.8472 48.7171 29.6541C48.3902 28.1472 47.2343 27.4067 46.2921 27.2004C46.0565 27.1488 45.8283 27.1217 45.6184 27.1099Z" fill="black"/>
<path d="M28.2159 21.5287C27.689 21.5842 27.4369 21.8967 27.2199 22.1838C27.003 22.471 26.8226 22.8097 26.6491 23.1975C26.3022 23.9731 25.9971 24.9415 25.7724 25.9145C25.5478 26.8874 25.4033 27.8507 25.4136 28.6508C25.4188 29.0509 25.4513 29.4092 25.5963 29.764C25.6688 29.9415 25.775 30.1268 25.9597 30.2853C26.1445 30.4438 26.4193 30.5508 26.6744 30.5541C27.6983 30.5673 31.3653 31.0815 34.7679 31.6024C36.4692 31.8629 38.1308 32.1242 39.4403 32.3237C40.7498 32.5233 41.6061 32.6602 42.0612 32.6797C42.5568 32.7009 43.0105 32.5599 43.5245 32.3594C44.0385 32.1589 44.5861 31.881 45.1097 31.5519C45.6332 31.2227 46.131 30.845 46.5381 30.4237C46.9452 30.0025 47.2882 29.5393 47.3823 28.9432C47.576 27.7079 46.7868 26.6409 45.9289 25.7465C45.071 24.8521 44.0984 24.1379 43.2143 23.8514C41.8554 23.4101 38.4885 22.8523 35.2043 22.3612C33.562 22.1156 31.9663 21.8965 30.7212 21.7439C30.0986 21.6676 29.5642 21.6082 29.1501 21.5698C28.7361 21.5315 28.5299 21.4964 28.2156 21.5296L28.2159 21.5287ZM28.4896 23.017C28.5277 23.0226 28.6896 23.0223 29.0092 23.052C29.3982 23.088 29.9221 23.1461 30.5352 23.2212C31.7615 23.3715 33.3474 23.5894 34.9779 23.8332C38.2388 24.3209 41.7813 24.9532 42.7428 25.2654C43.139 25.3939 44.1193 26.0267 44.832 26.7696C45.5446 27.5126 45.9437 28.3732 45.8901 28.7147C45.8738 28.8168 45.7345 29.0968 45.4452 29.3961C45.1555 29.6958 44.7421 30.0165 44.298 30.2957C43.854 30.5748 43.3775 30.8151 42.9688 30.9745C42.5602 31.1339 42.1927 31.1946 42.1263 31.1917C42.0195 31.1871 40.9738 31.0503 39.6703 30.8517C38.3669 30.653 36.7045 30.3918 34.9992 30.1307C31.7614 29.6349 28.5205 29.1504 26.9807 29.0855C26.9573 28.99 26.9256 28.8669 26.9225 28.632C26.9148 28.0364 27.0378 27.1396 27.2442 26.2454C27.4507 25.3513 27.7404 24.4461 28.0299 23.7989C28.1747 23.4753 28.3229 23.2152 28.4298 23.0737C28.4621 23.031 28.4713 23.0303 28.4893 23.017H28.4896Z" fill="black"/>
<path d="M88.8107 46.3104C88.7075 46.3014 88.6039 46.3104 88.5044 46.3357C88.3055 46.3877 88.1211 46.5166 88.0112 46.7078C87.9013 46.8991 87.8706 47.1415 87.9241 47.4009C87.978 47.6627 88.1129 47.8664 88.2793 47.9896C88.4458 48.1129 88.6236 48.1603 88.7689 48.1955C88.9143 48.2307 89.032 48.2579 89.088 48.2856C89.144 48.3133 89.1443 48.3045 89.1593 48.3751C89.1927 48.5317 89.0862 48.7717 88.9221 48.8873C88.84 48.945 88.7551 48.9713 88.6733 48.9664C88.5916 48.9614 88.5009 48.9297 88.3888 48.8163C88.3363 48.7633 88.2647 48.733 88.1896 48.7321C88.1146 48.7312 88.0422 48.7598 87.9885 48.8115C87.9348 48.8632 87.9041 48.9338 87.9032 49.0079C87.9023 49.0819 87.9312 49.1533 87.9836 49.2063C88.176 49.4008 88.4094 49.5098 88.6385 49.5237C88.8677 49.5377 89.0808 49.4615 89.2507 49.3418C89.5905 49.1026 89.8045 48.6881 89.7134 48.2604C89.6661 48.038 89.5025 47.8655 89.3421 47.7861C89.1816 47.7067 89.0304 47.6835 88.904 47.6529C88.7777 47.6223 88.6809 47.5884 88.6191 47.5427C88.5574 47.497 88.5107 47.4443 88.4788 47.2895C88.4466 47.1332 88.4706 47.0404 88.5035 46.9831C88.5364 46.9259 88.5828 46.8927 88.6497 46.8752C88.7835 46.8402 88.9935 46.89 89.1308 47.1177C89.1498 47.1492 89.1749 47.1767 89.2047 47.1986C89.2345 47.2206 89.2684 47.2365 89.3044 47.2456C89.3404 47.2546 89.3779 47.2566 89.4147 47.2513C89.4515 47.2461 89.4869 47.2337 89.5189 47.2149C89.5508 47.1962 89.5787 47.1714 89.601 47.142C89.6232 47.1126 89.6394 47.0792 89.6486 47.0436C89.6577 47.008 89.6597 46.9711 89.6544 46.9348C89.649 46.8985 89.6365 46.8636 89.6174 46.8321C89.4276 46.5173 89.1203 46.3369 88.8107 46.3102L88.8107 46.3104Z" fill="black"/>
<path d="M93.6234 120.483C93.5202 120.474 93.417 120.483 93.3175 120.508C93.1186 120.56 92.9338 120.689 92.8239 120.88C92.714 121.071 92.6833 121.314 92.7369 121.573C92.7908 121.835 92.9256 122.039 93.0921 122.162C93.2586 122.285 93.4367 122.332 93.582 122.368C93.7274 122.403 93.8451 122.43 93.9011 122.458C93.9571 122.485 93.9571 122.477 93.9721 122.548C94.0054 122.704 93.8989 122.944 93.7348 123.06C93.6528 123.118 93.5682 123.144 93.4864 123.139C93.4047 123.134 93.314 123.103 93.2018 122.989C93.1494 122.936 93.0778 122.906 93.0027 122.905C92.9277 122.904 92.8553 122.933 92.8016 122.984C92.7479 123.036 92.7172 123.107 92.7163 123.181C92.7154 123.255 92.7443 123.326 92.7967 123.379C92.9891 123.574 93.2224 123.682 93.4516 123.696C93.6808 123.71 93.8939 123.634 94.0638 123.514C94.4036 123.275 94.6173 122.861 94.5261 122.433C94.4789 122.21 94.3152 122.038 94.1548 121.959C93.9944 121.879 93.8431 121.856 93.7168 121.825C93.5904 121.795 93.4939 121.761 93.4322 121.715C93.3705 121.67 93.3235 121.617 93.2916 121.462C93.2593 121.306 93.2837 121.213 93.3166 121.156C93.3495 121.098 93.3956 121.065 93.4625 121.048C93.5962 121.013 93.8066 121.062 93.9439 121.29C93.9822 121.354 94.0447 121.4 94.1174 121.418C94.1901 121.436 94.2671 121.425 94.3316 121.387C94.3636 121.369 94.3915 121.344 94.4137 121.314C94.436 121.285 94.4522 121.252 94.4613 121.216C94.4705 121.181 94.4724 121.144 94.4671 121.107C94.4617 121.071 94.4492 121.036 94.4302 121.005C94.2404 120.69 93.9331 120.509 93.6234 120.483Z" fill="black"/>
<path d="M18.543 89.7857C18.3387 89.81 18.1378 89.9125 18.0021 90.0868C17.8664 90.2612 17.8019 90.4969 17.8184 90.7611C17.8351 91.0277 17.94 91.2481 18.0876 91.3929C18.2351 91.5378 18.4046 91.6089 18.5437 91.6636C18.6827 91.7184 18.7954 91.7614 18.847 91.7965C18.8985 91.8316 18.8999 91.8232 18.9048 91.8951C18.9159 92.0547 18.7766 92.278 18.5979 92.37C18.5085 92.416 18.4208 92.4302 18.3406 92.4141C18.2603 92.398 18.1751 92.3544 18.08 92.2267C18.058 92.1972 18.0302 92.1722 17.9984 92.1532C17.9666 92.1342 17.9313 92.1216 17.8945 92.1161C17.8577 92.1106 17.8202 92.1122 17.7841 92.121C17.748 92.1298 17.714 92.1456 17.684 92.1674C17.6236 92.2113 17.5833 92.277 17.5721 92.3502C17.5608 92.4234 17.5794 92.4981 17.6239 92.5577C17.7871 92.7766 18.0028 92.9161 18.2279 92.9613C18.4529 93.0065 18.6747 92.9597 18.8598 92.865C19.2299 92.6746 19.4998 92.2931 19.4697 91.8572C19.4542 91.6304 19.316 91.4374 19.1683 91.3369C19.0206 91.2363 18.8745 91.1925 18.7536 91.1449C18.6328 91.0974 18.5415 91.0505 18.4868 90.9968C18.4321 90.9431 18.3935 90.8845 18.3836 90.7268C18.3737 90.5675 18.4104 90.4791 18.451 90.4269C18.4916 90.3747 18.542 90.3482 18.6107 90.34C18.7481 90.3236 18.9494 90.4018 19.0533 90.646C19.0824 90.7143 19.1378 90.7683 19.2074 90.7963C19.2769 90.8243 19.3548 90.8239 19.424 90.7952C19.4932 90.7665 19.548 90.712 19.5764 90.6434C19.6048 90.5749 19.6044 90.4981 19.5755 90.4298C19.3838 89.9796 18.9517 89.7371 18.543 89.7857Z" fill="black"/>
<path d="M90.5396 46.0825C90.5028 46.0873 90.4672 46.0992 90.4351 46.1176C90.4029 46.1359 90.3747 46.1604 90.3521 46.1895C90.3295 46.2186 90.3129 46.2518 90.3033 46.2872C90.2937 46.3226 90.2913 46.3596 90.2961 46.396C90.2961 46.396 90.3541 46.8267 90.4043 47.3452C90.4544 47.8636 90.4931 48.481 90.4664 48.7868C90.4631 48.8233 90.4672 48.8601 90.4784 48.8951C90.4896 48.9301 90.5077 48.9626 90.5316 48.9907C90.5556 49.0188 90.5849 49.0419 90.6179 49.0588C90.6509 49.0757 90.6869 49.0861 90.724 49.0892C90.761 49.0924 90.7984 49.0884 90.8338 49.0773C90.8693 49.0663 90.9022 49.0484 90.9307 49.0248C90.9592 49.0012 90.9826 48.9723 90.9998 48.9398C91.0169 48.9072 91.0274 48.8716 91.0306 48.8351C91.066 48.4305 91.019 47.8221 90.9678 47.2923C90.9166 46.7626 90.8574 46.3227 90.8574 46.3227C90.8525 46.2864 90.8404 46.2513 90.8218 46.2195C90.8032 46.1878 90.7785 46.16 90.749 46.1377C90.7195 46.1154 90.6858 46.099 90.6498 46.0895C90.6139 46.0801 90.5765 46.0777 90.5396 46.0825Z" fill="black"/>
<path d="M95.3526 120.255C95.3158 120.26 95.2802 120.271 95.2481 120.29C95.2159 120.308 95.1877 120.333 95.1651 120.362C95.1425 120.391 95.1259 120.424 95.1163 120.459C95.1067 120.495 95.1043 120.532 95.1091 120.568C95.1091 120.568 95.1668 120.999 95.2169 121.518C95.2671 122.036 95.3061 122.653 95.2794 122.959C95.2761 122.996 95.2802 123.032 95.2914 123.067C95.3026 123.102 95.3207 123.135 95.3446 123.163C95.3685 123.191 95.3979 123.214 95.4309 123.231C95.4639 123.248 95.4999 123.258 95.537 123.261C95.6117 123.268 95.686 123.245 95.7434 123.197C95.8009 123.149 95.8368 123.081 95.8432 123.007C95.8787 122.603 95.8316 121.994 95.7805 121.465C95.7292 120.935 95.6704 120.495 95.6704 120.495C95.6655 120.459 95.6534 120.424 95.6348 120.392C95.6162 120.36 95.5915 120.332 95.562 120.31C95.5324 120.288 95.4987 120.271 95.4628 120.262C95.4269 120.252 95.3895 120.25 95.3526 120.255Z" fill="black"/>
<path d="M20.5941 89.8132C20.5191 89.8128 20.447 89.8417 20.3935 89.8936C20.3401 89.9456 20.3098 90.0164 20.3092 90.0904C20.3092 90.0904 20.3059 90.5248 20.2826 91.0451C20.2594 91.5654 20.2111 92.1823 20.1416 92.4815C20.1334 92.5173 20.1323 92.5543 20.1385 92.5905C20.1447 92.6266 20.1581 92.6613 20.1779 92.6923C20.1976 92.7234 20.2234 92.7504 20.2537 92.7716C20.2841 92.7928 20.3183 92.8079 20.3546 92.8161C20.3908 92.8243 20.4284 92.8253 20.465 92.8192C20.5017 92.813 20.5368 92.7998 20.5683 92.7803C20.5997 92.7608 20.627 92.7355 20.6486 92.7055C20.6701 92.6756 20.6854 92.6418 20.6937 92.606C20.7856 92.2102 20.8244 91.6014 20.8481 91.0697C20.8718 90.5381 20.8751 90.0946 20.8751 90.0946C20.8754 90.0579 20.8683 90.0216 20.8544 89.9876C20.8404 89.9536 20.8198 89.9226 20.7937 89.8965C20.7676 89.8703 20.7365 89.8496 20.7023 89.8353C20.6681 89.821 20.6313 89.8135 20.5941 89.8132Z" fill="black"/>
<path d="M92.1615 45.8041C92.1245 45.8074 92.0885 45.8179 92.0556 45.8349C92.0227 45.852 91.9935 45.8753 91.9697 45.9035C91.9459 45.9317 91.9279 45.9642 91.9168 45.9992C91.9058 46.0342 91.9018 46.071 91.9052 46.1076C91.9052 46.1076 91.9558 46.6557 91.9966 47.2681C92.0373 47.8805 92.0576 48.5986 92.0317 48.77C92.0208 48.8432 92.0397 48.9177 92.0844 48.9772C92.129 49.0366 92.1958 49.0761 92.27 49.0871C92.3067 49.0925 92.3442 49.0907 92.3803 49.0818C92.4164 49.0729 92.4503 49.0571 92.4802 49.0353C92.51 49.0134 92.5352 48.986 92.5544 48.9546C92.5735 48.9231 92.5862 48.8883 92.5917 48.852C92.6449 48.499 92.6028 47.8526 92.5614 47.2318C92.5202 46.611 92.4691 46.057 92.4691 46.057C92.4657 46.0205 92.4551 45.9849 92.4378 45.9524C92.4206 45.92 92.397 45.8911 92.3684 45.8677C92.3399 45.8442 92.3069 45.8265 92.2714 45.8156C92.2359 45.8047 92.1986 45.8008 92.1615 45.8041Z" fill="black"/>
<path d="M96.9742 119.976C96.8995 119.983 96.8305 120.019 96.7825 120.076C96.7345 120.133 96.7114 120.206 96.7182 120.28C96.7182 120.28 96.7688 120.828 96.8096 121.441C96.8503 122.053 96.8702 122.771 96.8444 122.942C96.8389 122.978 96.8408 123.015 96.8498 123.051C96.8588 123.087 96.8749 123.12 96.897 123.15C96.9192 123.179 96.947 123.204 96.9789 123.223C97.0108 123.242 97.0462 123.254 97.083 123.26C97.1572 123.27 97.2328 123.252 97.2931 123.207C97.3533 123.163 97.3933 123.097 97.4043 123.024C97.4575 122.671 97.4158 122.025 97.3744 121.404C97.3331 120.783 97.2818 120.229 97.2818 120.229C97.2784 120.193 97.2678 120.157 97.2505 120.125C97.2332 120.092 97.2097 120.063 97.1811 120.04C97.1525 120.016 97.1195 119.999 97.084 119.988C97.0485 119.977 97.0112 119.973 96.9742 119.976Z" fill="black"/>
<path d="M22.2394 89.7594C22.1645 89.7558 22.0911 89.7817 22.0356 89.8314C21.98 89.8811 21.9467 89.9506 21.943 90.0245C21.943 90.0245 21.9161 90.5743 21.8704 91.1864C21.8247 91.7984 21.7436 92.5123 21.6939 92.6786C21.6834 92.7138 21.68 92.7506 21.684 92.7871C21.6879 92.8236 21.6991 92.8589 21.7169 92.8911C21.7347 92.9234 21.7587 92.9518 21.7876 92.9749C21.8166 92.9979 21.8498 93.0151 21.8855 93.0254C21.9212 93.0358 21.9585 93.0391 21.9955 93.0352C22.0325 93.0314 22.0683 93.0204 22.101 93.0028C22.1336 92.9853 22.1625 92.9615 22.1858 92.933C22.2092 92.9044 22.2266 92.8716 22.2371 92.8364C22.3394 92.4941 22.3886 91.848 22.4349 91.2276C22.4813 90.6071 22.5085 90.0514 22.5085 90.0514C22.5121 89.9775 22.4857 89.9052 22.4353 89.8505C22.3848 89.7957 22.3143 89.7629 22.2394 89.7594Z" fill="black"/>
<path d="M92.2613 47.0453L90.6764 47.1649C90.6016 47.1705 90.5322 47.2053 90.4833 47.2615C90.4344 47.3176 90.4102 47.3906 90.4158 47.4644C90.4187 47.501 90.4288 47.5367 90.4456 47.5694C90.4624 47.6021 90.4856 47.6312 90.5139 47.655C90.5421 47.6789 90.5748 47.6971 90.6101 47.7085C90.6455 47.7199 90.6827 47.7243 90.7198 47.7215L92.3047 47.6022C92.3417 47.5994 92.3779 47.5894 92.411 47.5729C92.4442 47.5563 92.4737 47.5334 92.4979 47.5055C92.5221 47.4777 92.5405 47.4454 92.552 47.4105C92.5636 47.3757 92.5681 47.3389 92.5652 47.3023C92.5624 47.2658 92.5523 47.2301 92.5355 47.1974C92.5186 47.1647 92.4955 47.1355 92.4672 47.1116C92.439 47.0878 92.4063 47.0696 92.3709 47.0582C92.3356 47.0468 92.2983 47.0424 92.2613 47.0453Z" fill="black"/>
<path d="M97.0743 121.217L95.4895 121.337C95.4524 121.34 95.4163 121.35 95.3831 121.366C95.3499 121.383 95.3204 121.406 95.2962 121.434C95.2719 121.461 95.2535 121.494 95.2419 121.528C95.2303 121.563 95.2258 121.6 95.2286 121.637C95.2314 121.673 95.2415 121.709 95.2583 121.742C95.2751 121.774 95.2982 121.804 95.3265 121.827C95.3547 121.851 95.3874 121.87 95.4228 121.881C95.4582 121.892 95.4955 121.897 95.5325 121.894L97.1174 121.774C97.1545 121.772 97.1906 121.762 97.2238 121.745C97.2569 121.728 97.2865 121.706 97.3107 121.678C97.3349 121.65 97.3532 121.618 97.3648 121.583C97.3763 121.548 97.3808 121.511 97.378 121.475C97.3722 121.401 97.337 121.332 97.2801 121.284C97.2232 121.236 97.1492 121.212 97.0743 121.217Z" fill="black"/>
<path d="M20.5777 90.9038C20.5406 90.9014 20.5034 90.9064 20.4682 90.9183C20.433 90.9301 20.4006 90.9487 20.3727 90.973C20.3448 90.9972 20.322 91.0267 20.3057 91.0597C20.2893 91.0926 20.2797 91.1284 20.2774 91.165C20.2728 91.2389 20.2981 91.3117 20.3477 91.3672C20.3974 91.4227 20.4674 91.4564 20.5423 91.461L22.1284 91.5596C22.1655 91.5619 22.2027 91.5569 22.2379 91.5451C22.2731 91.5332 22.3056 91.5146 22.3335 91.4903C22.3614 91.4661 22.3841 91.4366 22.4005 91.4036C22.4168 91.3707 22.4264 91.3349 22.4288 91.2983C22.4311 91.2617 22.4261 91.225 22.4141 91.1902C22.402 91.1555 22.3832 91.1235 22.3586 91.096C22.334 91.0685 22.3041 91.046 22.2707 91.0299C22.2373 91.0137 22.201 91.0043 22.1639 91.002L20.5777 90.9038Z" fill="black"/>
<path d="M94.2257 45.5606C93.9306 45.5589 93.6737 45.6965 93.5067 45.8847C93.3396 46.0731 93.2441 46.3032 93.1847 46.5347C93.1253 46.7663 93.1035 47.0015 93.1065 47.2106C93.1095 47.4197 93.1277 47.5926 93.1975 47.7517C93.4258 48.2704 93.8727 48.5174 94.2792 48.5277C94.6858 48.538 95.056 48.3714 95.2513 48.0645C95.5294 47.6261 95.5098 47.0464 95.3387 46.5454C95.2531 46.2949 95.1247 46.0616 94.942 45.8783C94.7595 45.6951 94.5094 45.562 94.2257 45.5606ZM94.2226 46.1191C94.3357 46.1191 94.434 46.1654 94.5381 46.2699C94.6422 46.3743 94.7386 46.5371 94.8023 46.7237C94.9298 47.097 94.9068 47.5543 94.7711 47.7682C94.7221 47.8447 94.5073 47.9753 94.2936 47.9698C94.0798 47.9644 93.8716 47.8823 93.7163 47.5296C93.7071 47.5085 93.6742 47.3659 93.6719 47.2028C93.6696 47.0397 93.6884 46.8461 93.7331 46.6718C93.7778 46.4976 93.8498 46.3449 93.9318 46.2524C94.0139 46.1598 94.0875 46.1183 94.222 46.1191H94.2226Z" fill="black"/>
<path d="M99.0387 119.733C98.7435 119.731 98.4864 119.869 98.3194 120.057C98.1523 120.245 98.0571 120.476 97.9977 120.707C97.9383 120.939 97.9165 121.174 97.9195 121.383C97.9225 121.592 97.9407 121.765 98.0105 121.924C98.2388 122.443 98.686 122.69 99.0926 122.7C99.4991 122.711 99.8693 122.544 100.065 122.237C100.343 121.798 100.323 121.219 100.152 120.718C100.067 120.467 99.938 120.234 99.7554 120.05C99.5727 119.867 99.3228 119.734 99.039 119.733H99.0387ZM99.0356 120.291C99.1487 120.291 99.2473 120.338 99.3514 120.442C99.4555 120.547 99.5515 120.71 99.6153 120.896C99.7427 121.269 99.72 121.726 99.5844 121.94C99.5357 122.017 99.3205 122.148 99.1066 122.142C98.8929 122.137 98.6848 122.054 98.5296 121.702C98.5203 121.681 98.4872 121.538 98.4849 121.375C98.4825 121.212 98.5012 121.018 98.546 120.844C98.5907 120.67 98.6631 120.517 98.7452 120.425C98.8272 120.332 98.9008 120.291 99.0353 120.291H99.0356Z" fill="black"/>
<path d="M24.3178 89.8005C24.0258 89.7587 23.7521 89.8593 23.5604 90.0229C23.3684 90.1866 23.2416 90.4018 23.1503 90.6229C23.0589 90.8441 23.0042 91.0739 22.9778 91.2813C22.9513 91.4888 22.9451 91.6628 22.9919 91.8298C23.1451 92.3747 23.5532 92.6808 23.9544 92.7466C24.3555 92.8124 24.7454 92.6977 24.9819 92.4205C25.3189 92.0244 25.3813 91.4479 25.2822 90.9283C25.2327 90.6685 25.1381 90.4197 24.9829 90.2132C24.8277 90.0067 24.5985 89.8408 24.3175 89.8008L24.3178 89.8005ZM24.2366 90.3532C24.3485 90.3692 24.4397 90.4278 24.5281 90.5455C24.6165 90.6631 24.689 90.8379 24.7259 91.0314C24.7997 91.4184 24.7128 91.8676 24.5485 92.061C24.4895 92.1301 24.2581 92.2305 24.047 92.1958C23.8361 92.1612 23.6413 92.0513 23.537 91.681C23.5308 91.6587 23.5184 91.5131 23.539 91.3514C23.5597 91.1895 23.6053 91.0004 23.6741 90.834C23.7429 90.6675 23.8358 90.526 23.9301 90.4456C24.0244 90.3652 24.1032 90.3344 24.2363 90.3535L24.2366 90.3532Z" fill="black"/>
<path d="M97.256 44.5466C96.8494 44.5542 96.5158 44.7437 96.3195 45.0179C96.1232 45.2922 96.0409 45.6275 96.0008 45.9752C95.9776 46.1759 95.9885 46.38 95.9883 46.5853C95.9821 46.597 95.9767 46.6092 95.9722 46.6216C95.9761 46.6342 95.9809 46.6464 95.9866 46.6583C95.9903 47.1384 96.0176 47.6026 96.0192 47.9177C96.0193 47.9544 96.0269 47.9906 96.0413 48.0244C96.0557 48.0583 96.0767 48.089 96.1031 48.1148C96.1295 48.1406 96.1609 48.161 96.1953 48.1749C96.2297 48.1887 96.2666 48.1957 96.3037 48.1955C96.3409 48.1953 96.3777 48.1879 96.412 48.1737C96.4462 48.1595 96.4773 48.1388 96.5035 48.1127C96.5296 48.0866 96.5503 48.0557 96.5643 48.0218C96.5784 47.9878 96.5855 47.9515 96.5853 47.9148C96.5837 47.6184 96.5621 47.2559 96.5495 46.8875C97.1991 46.8712 97.7059 46.7869 98.0476 46.6142C98.4455 46.4131 98.6667 46.0727 98.6614 45.735C98.6562 45.3974 98.4663 45.1044 98.2103 44.8925C97.9542 44.6806 97.6182 44.5402 97.2563 44.5466H97.256ZM97.2664 45.1048C97.4674 45.1013 97.6861 45.1876 97.8461 45.3201C98.0061 45.4525 98.0933 45.6212 98.0952 45.7431C98.097 45.865 98.0554 45.9821 97.7893 46.1166C97.5648 46.23 97.1364 46.3091 96.5586 46.3283C96.5627 46.2328 96.5529 46.1278 96.5632 46.0381C96.5975 45.7408 96.673 45.4918 96.7817 45.3399C96.8904 45.188 97.0093 45.1093 97.2664 45.1045L97.2664 45.1048Z" fill="black"/>
<path d="M102.069 118.719C101.662 118.726 101.328 118.916 101.132 119.19C100.936 119.465 100.854 119.8 100.814 120.148C100.79 120.348 100.801 120.552 100.801 120.757C100.795 120.769 100.789 120.781 100.785 120.794C100.789 120.807 100.794 120.819 100.799 120.831C100.803 121.311 100.83 121.775 100.832 122.09C100.832 122.164 100.863 122.235 100.916 122.287C100.969 122.339 101.041 122.368 101.116 122.368C101.191 122.367 101.263 122.338 101.316 122.285C101.369 122.232 101.398 122.161 101.398 122.087C101.396 121.791 101.375 121.428 101.362 121.06C102.012 121.043 102.518 120.959 102.86 120.786C103.258 120.585 103.479 120.245 103.474 119.907C103.469 119.57 103.279 119.277 103.023 119.065C102.767 118.853 102.431 118.712 102.069 118.719H102.069ZM102.079 119.277C102.28 119.274 102.499 119.36 102.659 119.493C102.819 119.625 102.906 119.794 102.908 119.916C102.91 120.038 102.868 120.155 102.602 120.289C102.378 120.403 101.949 120.482 101.372 120.501C101.376 120.405 101.366 120.3 101.376 120.211C101.41 119.913 101.486 119.664 101.595 119.512C101.703 119.36 101.822 119.282 102.079 119.277Z" fill="black"/>
<path d="M27.4614 89.2105C27.0577 89.1624 26.701 89.3044 26.4681 89.5492C26.2351 89.794 26.1065 90.1148 26.0179 90.4537C25.9668 90.6491 25.9487 90.8528 25.9196 91.056C25.9118 91.0668 25.9048 91.0782 25.8986 91.09C25.9008 91.103 25.9039 91.1158 25.9079 91.1283C25.8441 91.6043 25.806 92.0677 25.7633 92.3799C25.7532 92.4533 25.7731 92.5276 25.8186 92.5865C25.8641 92.6454 25.9314 92.6841 26.0058 92.6941C26.0426 92.699 26.0801 92.6966 26.1161 92.6873C26.152 92.6779 26.1858 92.6616 26.2153 92.6394C26.2449 92.6171 26.2697 92.5893 26.2884 92.5576C26.3071 92.5259 26.3193 92.4909 26.3242 92.4545C26.3644 92.1606 26.3936 91.7988 26.433 91.4321C27.0787 91.5048 27.5923 91.4906 27.955 91.3662C28.3774 91.2215 28.6443 90.9149 28.6865 90.5798C28.7288 90.2447 28.5817 89.9283 28.3579 89.6834C28.1341 89.4385 27.8211 89.2536 27.4618 89.2105H27.4614ZM27.3934 89.7648C27.5929 89.7888 27.7977 89.9045 27.9376 90.0575C28.0774 90.2106 28.1401 90.3898 28.1249 90.5107C28.1096 90.6317 28.0518 90.742 27.7693 90.8388C27.5311 90.9205 27.0956 90.94 26.5206 90.88C26.5381 90.786 26.5431 90.6807 26.566 90.5934C26.6417 90.3037 26.7518 90.0673 26.8808 89.9318C27.0097 89.7963 27.1384 89.7345 27.3934 89.7648Z" fill="black"/>
<path d="M70.4717 77.7332C66.3085 79.2241 60.1496 79.9525 60.1496 79.9525C60.0512 79.9639 59.9559 79.9943 59.8694 80.042C59.7829 80.0897 59.7067 80.1537 59.6452 80.2304C59.5838 80.3071 59.5382 80.3951 59.5112 80.4892C59.4842 80.5833 59.4763 80.6817 59.4878 80.7788C59.4993 80.876 59.5302 80.9699 59.5785 81.0553C59.6268 81.1406 59.6918 81.2158 59.7695 81.2764C59.8473 81.3371 59.9364 81.382 60.0318 81.4086C60.1272 81.4353 60.227 81.4431 60.3254 81.4317C60.3254 81.4317 66.5289 80.7293 70.9866 79.133C71.0798 79.0996 71.1654 79.0485 71.2385 78.9825C71.3117 78.9165 71.371 78.8369 71.413 78.7483C71.455 78.6597 71.4788 78.5639 71.4833 78.4661C71.4877 78.3684 71.4725 78.2709 71.4387 78.1789C71.3704 77.9933 71.2301 77.8421 71.0488 77.7585C70.8674 77.6749 70.6598 77.6658 70.4717 77.7332Z" fill="black"/>
<path d="M69.4154 62.9582C69.3177 62.9745 69.2242 63.0097 69.1402 63.0617C69.0563 63.1137 68.9835 63.1815 68.9261 63.2613C68.8101 63.4222 68.7637 63.622 68.7971 63.8167C68.8304 64.0115 68.9408 64.1852 69.1039 64.2996C70.5577 65.319 71.3866 67.9866 71.2766 70.8862C71.1667 73.7859 70.1448 76.8281 68.5308 78.4431C68.3904 78.5838 68.3123 78.7737 68.3137 78.9712C68.3152 79.1686 68.3961 79.3574 68.5387 79.496C68.6813 79.6346 68.8738 79.7117 69.074 79.7103C69.2741 79.7089 69.4655 79.6291 69.6061 79.4886C71.6379 77.4554 72.6643 74.1316 72.7853 70.942C72.9062 67.7523 72.1489 64.6073 69.9786 63.0856C69.8978 63.0289 69.8065 62.9885 69.7099 62.9666C69.6133 62.9447 69.5132 62.9419 69.4154 62.9582Z" fill="black"/>
<path d="M61.9936 64.5086C61.7941 64.4928 61.5964 64.5558 61.4439 64.6838C61.2915 64.8117 61.1968 64.9942 61.1807 65.191C61.1807 65.191 60.4084 74.0321 62.9496 80.4497C62.9856 80.5408 63.0395 80.624 63.1082 80.6946C63.1768 80.7651 63.2589 80.8216 63.3497 80.8609C63.4406 80.9001 63.5383 80.9214 63.6374 80.9234C63.7366 80.9253 63.8351 80.908 63.9275 80.8724C64.0198 80.8368 64.1041 80.7836 64.1756 80.7158C64.2471 80.6481 64.3043 80.5671 64.3441 80.4775C64.3839 80.3879 64.4053 80.2915 64.4073 80.1937C64.4093 80.096 64.3917 79.9987 64.3556 79.9076C62.0282 74.0297 62.6857 65.3103 62.6857 65.3103C62.7017 65.1135 62.6377 64.9185 62.508 64.7681C62.3782 64.6178 62.1932 64.5244 61.9936 64.5086Z" fill="black"/>
<path d="M66.2017 62.6134C66.0116 62.6752 65.8542 62.8089 65.764 62.9852C65.6739 63.1615 65.6584 63.3659 65.721 63.5535C65.721 63.5535 67.872 69.9715 66.5264 79.3399C66.4983 79.5354 66.5502 79.7339 66.6705 79.8917C66.7907 80.0496 66.9696 80.1538 67.1678 80.1815C67.2659 80.1952 67.3659 80.1897 67.4619 80.1653C67.5579 80.141 67.6481 80.0982 67.7274 80.0395C67.8066 79.9807 67.8733 79.9071 67.9237 79.8229C67.9742 79.7387 68.0073 79.6455 68.0212 79.5487C69.412 69.8658 67.155 63.0873 67.155 63.0873C67.1239 62.9945 67.0747 62.9086 67.0099 62.8345C66.9452 62.7604 66.8663 62.6996 66.7778 62.6556C66.6893 62.6116 66.5929 62.5852 66.494 62.578C66.3952 62.5707 66.2958 62.5828 66.2017 62.6134Z" fill="black"/>
<path d="M75.0501 62.3416C71.7948 62.4995 70.2653 64.8598 70.2653 64.8598C70.1602 65.0278 70.127 65.2302 70.1731 65.4224C70.2192 65.6146 70.3408 65.7808 70.5111 65.8845C70.6815 65.9882 70.8866 66.0209 71.0814 65.9755C71.2762 65.93 71.4447 65.8101 71.5498 65.642C71.5498 65.642 72.5537 63.9536 75.124 63.8289C75.2231 63.8241 75.3201 63.8001 75.4098 63.7583C75.4994 63.7165 75.5798 63.6578 75.6464 63.5853C75.713 63.5128 75.7644 63.4282 75.7978 63.3361C75.8312 63.244 75.8459 63.1463 75.8411 63.0486C75.8312 62.8514 75.7423 62.6661 75.594 62.5335C75.4457 62.4009 75.25 62.3319 75.0501 62.3416Z" fill="black"/>
<path d="M76.157 64.2074C76.0579 64.2091 75.9601 64.23 75.8691 64.269C75.7782 64.308 75.6959 64.3643 75.627 64.4346C74.2927 65.7977 73.2934 66.213 72.6873 66.3307C72.3843 66.3896 72.1743 66.3755 72.0508 66.3557C71.9274 66.336 71.9473 66.3366 71.9473 66.3366C71.8583 66.2936 71.7615 66.2683 71.6625 66.2623C71.5636 66.2562 71.4644 66.2695 71.3706 66.3012C71.2768 66.333 71.1903 66.3826 71.116 66.4474C71.0417 66.5121 70.9811 66.5907 70.9375 66.6786C70.894 66.7665 70.8684 66.8619 70.8623 66.9596C70.8562 67.0572 70.8696 67.1551 70.9018 67.2476C70.9341 67.3401 70.9844 67.4255 71.0501 67.4987C71.1157 67.572 71.1954 67.6319 71.2845 67.6748C71.2845 67.6748 71.5204 67.7796 71.8093 67.8258C72.0983 67.8721 72.4968 67.8855 72.9791 67.7918C73.9437 67.6044 75.2215 66.9928 76.713 65.4691C76.8521 65.327 76.9282 65.1363 76.9247 64.9388C76.9212 64.7413 76.8383 64.5533 76.6943 64.4162C76.5503 64.2791 76.3571 64.204 76.157 64.2074Z" fill="black"/>
<path d="M74.4803 82.0314C73.9478 82.0689 73.4096 82.2099 72.8915 82.4425C72.8013 82.483 72.72 82.5406 72.6524 82.612C72.5847 82.6835 72.532 82.7675 72.4972 82.8591C72.4624 82.9506 72.4463 83.0481 72.4497 83.1458C72.453 83.2435 72.4759 83.3396 72.5169 83.4286C72.558 83.5177 72.6164 83.5979 72.6889 83.6646C72.7613 83.7314 72.8464 83.7835 72.9393 83.8178C73.0321 83.8521 73.1309 83.8681 73.23 83.8647C73.3292 83.8614 73.4266 83.8387 73.5169 83.7982C74.2591 83.465 74.9493 83.4325 75.5066 83.6377C76.0638 83.8429 76.5383 84.28 76.845 85.1176C76.8786 85.2096 76.9303 85.2941 76.9971 85.3664C77.0639 85.4387 77.1445 85.4972 77.2342 85.5388C77.324 85.5803 77.4211 85.604 77.5202 85.6085C77.6192 85.613 77.7181 85.5982 77.8114 85.565C77.9996 85.4979 78.1531 85.3598 78.2381 85.1811C78.3232 85.0023 78.3328 84.7976 78.2648 84.6119C77.8363 83.4412 77.0244 82.607 76.0346 82.2425C75.5397 82.0602 75.0129 81.994 74.4803 82.0314Z" fill="black"/>
<path d="M81.2417 81.1966C80.2133 81.2144 79.4536 81.2354 78.9385 81.3379C78.938 81.3379 78.9374 81.3379 78.9368 81.3379C77.9887 81.5279 77.1068 82.1264 76.3764 82.8084C76.0112 83.1493 75.6919 83.514 75.4491 83.8934C75.2063 84.2725 75.0098 84.6626 75.0337 85.1612C75.0705 85.9393 75.4297 86.7962 75.915 87.6457C76.4004 88.4955 76.9402 89.3139 77.8659 89.6423C78.1957 89.7593 78.4541 89.7663 78.8567 89.794C79.2592 89.8218 79.7544 89.8383 80.3166 89.8469C81.4411 89.8641 82.8308 89.8489 84.205 89.8154C85.5791 89.7819 86.9358 89.7302 87.9908 89.6734C88.5183 89.645 88.9698 89.6155 89.3164 89.5856C89.4897 89.5706 89.6363 89.5556 89.7603 89.5392C89.8844 89.5228 89.9446 89.5294 90.1376 89.4582C90.5739 89.2969 90.7305 89.0078 90.8749 88.7369C91.0194 88.466 91.1271 88.1626 91.2213 87.8217C91.4096 87.1401 91.5339 86.3137 91.5749 85.4766C91.6158 84.6396 91.5776 83.8012 91.3889 83.0742C91.2946 82.7107 91.1645 82.3705 90.9449 82.0663C90.7255 81.7623 90.3803 81.4868 89.9526 81.4031C89.738 81.361 89.561 81.3551 89.2461 81.3363C88.9311 81.3174 88.5275 81.2989 88.0595 81.2815C87.1235 81.2467 85.9325 81.2164 84.7186 81.1991C83.5047 81.1819 82.2691 81.1778 81.2407 81.1957L81.2417 81.1966ZM81.268 82.6858C82.2709 82.6684 83.4953 82.6724 84.6979 82.6893C85.9006 82.7063 87.0829 82.7365 88.0037 82.7707C88.464 82.7878 88.8595 82.8058 89.1557 82.8235C89.452 82.8413 89.6982 82.8723 89.6595 82.8647C89.6524 82.863 89.6539 82.8455 89.7157 82.9311C89.7775 83.0168 89.8631 83.1984 89.927 83.4446C90.0548 83.9372 90.1033 84.6703 90.0673 85.4059C90.0313 86.1415 89.9147 86.889 89.765 87.431C89.6901 87.702 89.6043 87.9226 89.5392 88.0447C89.53 88.062 89.5291 88.0568 89.5205 88.0684C89.4351 88.079 89.3271 88.0904 89.1847 88.1027C88.866 88.1303 88.4259 88.1595 87.9087 88.1873C86.8742 88.243 85.5281 88.2942 84.1679 88.3274C82.8077 88.3605 81.4315 88.3752 80.3403 88.3585C79.7947 88.3502 79.3196 88.3339 78.9622 88.3092C78.6048 88.2846 78.3135 88.2194 78.3766 88.2418C78.2357 88.1918 77.6329 87.6202 77.2304 86.9156C76.8279 86.211 76.5538 85.3495 76.5417 85.0921C76.5434 85.1205 76.5726 84.9281 76.7254 84.6895C76.8782 84.4509 77.1238 84.1621 77.4141 83.891C77.9945 83.3491 78.7848 82.8893 79.2366 82.7985C79.4224 82.7616 80.2646 82.7038 81.2673 82.6864L81.268 82.6858Z" fill="black"/>
<path d="M11.5388 68.8427C11.4398 68.8379 11.3408 68.8525 11.2475 68.8855C11.1542 68.9185 11.0683 68.9693 10.9949 69.035C10.9215 69.1007 10.8619 69.18 10.8196 69.2685C10.7773 69.3569 10.753 69.4527 10.7482 69.5504C10.7434 69.648 10.7581 69.7457 10.7916 69.8377C10.825 69.9298 10.8765 70.0145 10.9431 70.0869C11.0097 70.1594 11.0901 70.2181 11.1798 70.2599C11.2694 70.3017 11.3665 70.3256 11.4655 70.3303C11.4655 70.3303 20.6228 70.7694 30.0792 71.2147C39.5356 71.6599 49.2042 72.1095 50.5054 72.1366C50.7056 72.1408 50.8992 72.0664 51.0437 71.9297C51.1882 71.7931 51.2718 71.6053 51.276 71.4079C51.2781 71.3101 51.2606 71.2129 51.2247 71.1218C51.1887 71.0307 51.1348 70.9475 51.0662 70.8769C50.9977 70.8063 50.9156 70.7497 50.8249 70.7103C50.7341 70.671 50.6364 70.6498 50.5373 70.6477C49.4478 70.625 39.6067 70.1722 30.1512 69.727C20.6956 69.2818 11.5388 68.8427 11.5388 68.8427Z" fill="black"/>
<path d="M12.251 75.367C12.152 75.3622 12.053 75.3768 11.9597 75.4098C11.8663 75.4428 11.7805 75.4936 11.7071 75.5593C11.6337 75.625 11.5741 75.7043 11.5318 75.7928C11.4894 75.8812 11.4652 75.977 11.4604 76.0746C11.4555 76.1723 11.4703 76.27 11.5037 76.362C11.5372 76.4541 11.5887 76.5388 11.6553 76.6112C11.7219 76.6837 11.8023 76.7424 11.8919 76.7842C11.9816 76.8259 12.0787 76.8499 12.1777 76.8546C12.1777 76.8546 24.9377 77.4653 35.8876 77.9782C36.0876 77.9875 36.283 77.9181 36.4311 77.7853C36.5792 77.6525 36.6677 77.4671 36.6773 77.2699C36.6867 77.0727 36.6164 76.8798 36.4818 76.7337C36.3471 76.5876 36.1592 76.5003 35.9593 76.4909C25.0106 75.978 12.251 75.367 12.251 75.367Z" fill="black"/>
<path d="M12.709 81.8916C12.5091 81.882 12.3135 81.9511 12.1652 82.0838C12.017 82.2164 11.9282 82.4018 11.9184 82.599C11.9136 82.6967 11.9283 82.7943 11.9617 82.8864C11.9952 82.9784 12.0467 83.0631 12.1133 83.1356C12.1799 83.208 12.2603 83.2668 12.35 83.3085C12.4396 83.3503 12.5367 83.3742 12.6357 83.3789C12.6357 83.3789 23.2267 83.8871 33.3909 84.3635C33.4899 84.3681 33.5889 84.3535 33.6822 84.3204C33.7755 84.2873 33.8613 84.2364 33.9347 84.1706C34.008 84.1048 34.0675 84.0254 34.1098 83.9369C34.152 83.8484 34.1761 83.7525 34.1808 83.6548C34.1855 83.5571 34.1706 83.4595 34.1371 83.3675C34.1035 83.2755 34.0519 83.1909 33.9852 83.1186C33.9185 83.0462 33.838 82.9876 33.7483 82.9459C33.6586 82.9043 33.5615 82.8804 33.4625 82.8758C23.2995 82.3995 12.709 81.8916 12.709 81.8916Z" fill="black"/>
<path d="M45.8365 116.792C45.6366 116.802 45.4489 116.89 45.3147 117.037L42.9964 119.566C42.9033 119.667 42.8404 119.792 42.8146 119.927C42.7889 120.061 42.8012 120.2 42.8503 120.329C42.8993 120.457 42.9833 120.569 43.0928 120.653C43.2024 120.737 43.3333 120.79 43.4712 120.805L45.6281 121.046C45.7266 121.057 45.8264 121.049 45.9216 121.022C46.0169 120.995 46.1058 120.949 46.1834 120.889C46.2609 120.828 46.3255 120.752 46.3735 120.667C46.4215 120.581 46.452 120.487 46.4631 120.39C46.4743 120.293 46.4659 120.194 46.4385 120.1C46.4111 120.006 46.3653 119.919 46.3035 119.842C46.2417 119.766 46.1653 119.702 46.0786 119.655C45.9919 119.607 45.8965 119.577 45.798 119.566L45.1027 119.488L46.4345 118.035C46.501 117.963 46.5524 117.878 46.5857 117.786C46.6189 117.694 46.6335 117.596 46.6285 117.498C46.6235 117.401 46.599 117.305 46.5565 117.217C46.514 117.128 46.4542 117.049 46.3806 116.983C46.2321 116.851 46.0364 116.782 45.8365 116.792Z" fill="black"/>
<path d="M95.6876 101.262L59.2627 107.636C59.0656 107.67 58.8905 107.781 58.7758 107.942C58.6612 108.104 58.6163 108.304 58.6512 108.499C58.6685 108.595 58.7048 108.687 58.7582 108.77C58.8115 108.852 58.8808 108.923 58.9621 108.979C59.0433 109.035 59.135 109.075 59.2318 109.096C59.3286 109.117 59.4286 109.119 59.5263 109.102L95.9511 102.728C96.0487 102.711 96.142 102.676 96.2255 102.623C96.3091 102.57 96.3814 102.502 96.4382 102.422C96.4949 102.342 96.5352 102.251 96.5565 102.156C96.5779 102.06 96.58 101.961 96.5627 101.865C96.5277 101.671 96.4158 101.498 96.2517 101.385C96.0876 101.272 95.8847 101.228 95.6876 101.262Z" fill="black"/>
<path d="M73.9107 110.791L59.8226 113.256C59.725 113.273 59.6317 113.309 59.5482 113.362C59.4646 113.415 59.3924 113.483 59.3356 113.563C59.2788 113.643 59.2386 113.734 59.2172 113.829C59.1958 113.925 59.1938 114.023 59.2111 114.12C59.2284 114.216 59.2647 114.308 59.3181 114.39C59.3714 114.473 59.4407 114.544 59.5219 114.6C59.6032 114.656 59.6948 114.696 59.7916 114.717C59.8885 114.738 59.9885 114.74 60.0861 114.723L74.1743 112.258C74.2719 112.241 74.3651 112.205 74.4487 112.152C74.5323 112.1 74.6045 112.031 74.6613 111.951C74.7181 111.871 74.7583 111.781 74.7797 111.685C74.8011 111.59 74.8031 111.491 74.7858 111.395C74.7685 111.298 74.7322 111.206 74.6788 111.124C74.6255 111.041 74.5562 110.97 74.475 110.914C74.3937 110.858 74.302 110.818 74.2052 110.797C74.1084 110.776 74.0084 110.774 73.9107 110.791Z" fill="black"/>
<path d="M82.9049 114.241L59.889 118.268C59.7914 118.286 59.6981 118.321 59.6146 118.374C59.531 118.427 59.4588 118.495 59.402 118.575C59.3452 118.655 59.305 118.746 59.2836 118.841C59.2622 118.937 59.2602 119.035 59.2775 119.132C59.2948 119.228 59.3311 119.32 59.3845 119.403C59.4378 119.485 59.5071 119.556 59.5883 119.612C59.6696 119.668 59.7612 119.708 59.8581 119.729C59.9549 119.75 60.0549 119.752 60.1525 119.735L83.1685 115.708C83.2661 115.691 83.3593 115.655 83.4429 115.602C83.5265 115.55 83.5987 115.481 83.6555 115.401C83.7123 115.321 83.7525 115.231 83.7739 115.135C83.7952 115.04 83.7973 114.941 83.78 114.845C83.7627 114.748 83.7263 114.656 83.673 114.574C83.6197 114.491 83.5504 114.42 83.4691 114.364C83.3879 114.308 83.2963 114.268 83.1994 114.247C83.1026 114.226 83.0025 114.224 82.9049 114.241Z" fill="black"/>
<path d="M72.5936 121.942L60.6016 124.04C60.504 124.057 60.4108 124.093 60.3272 124.145C60.2437 124.198 60.1714 124.266 60.1146 124.346C60.0578 124.427 60.0176 124.517 59.9963 124.613C59.9749 124.708 59.9728 124.807 59.9901 124.903C60.0074 124.999 60.0438 125.091 60.0971 125.174C60.1504 125.256 60.2197 125.327 60.301 125.384C60.3822 125.44 60.4739 125.479 60.5707 125.5C60.6675 125.521 60.7676 125.523 60.8652 125.506L72.8572 123.408C73.0543 123.374 73.2294 123.263 73.3441 123.101C73.4588 122.94 73.5036 122.739 73.4687 122.545C73.4514 122.449 73.4151 122.357 73.3617 122.274C73.3084 122.192 73.2391 122.121 73.1578 122.065C73.0766 122.009 72.985 121.969 72.8881 121.948C72.7913 121.927 72.6913 121.925 72.5936 121.942Z" fill="black"/>
<path d="M44.0886 114.165C43.7458 114.148 43.3996 114.151 43.0525 114.174C42.8528 114.187 42.6667 114.278 42.5351 114.427C42.4035 114.576 42.3371 114.77 42.3506 114.967C42.3573 115.065 42.3834 115.16 42.4274 115.248C42.4715 115.335 42.5326 115.413 42.6072 115.478C42.6819 115.542 42.7687 115.591 42.8626 115.623C42.9566 115.654 43.0558 115.667 43.1547 115.66C45.4369 115.507 47.7166 116.513 48.8136 117.947C49.3621 118.665 49.6299 119.461 49.5421 120.334C49.4543 121.206 49.0008 122.193 47.9398 123.247C47.2037 123.979 45.1716 124.549 43.1991 124.459C41.2266 124.368 39.4141 123.655 38.8106 122.614C38.7112 122.442 38.5469 122.317 38.3538 122.265C38.1607 122.213 37.9545 122.239 37.7808 122.337C37.607 122.435 37.4798 122.597 37.4272 122.788C37.3746 122.978 37.4008 123.182 37.5001 123.353C38.5387 125.145 40.8635 125.843 43.1291 125.946C45.3946 126.05 47.7017 125.598 49.0114 124.296C50.2562 123.059 50.9163 121.751 51.0441 120.481C51.1719 119.21 50.7571 118.016 50.0186 117.05C48.7261 115.36 46.4882 114.283 44.0886 114.165Z" fill="black"/>
<path d="M49.2872 121.92C49.0901 121.954 48.9148 122.064 48.7998 122.225C48.7429 122.305 48.7025 122.396 48.681 122.491C48.6595 122.587 48.6572 122.686 48.6744 122.782C48.6915 122.878 48.7277 122.97 48.781 123.053C48.8342 123.135 48.9033 123.207 48.9845 123.263C48.9845 123.263 49.1835 123.409 49.3167 123.558C49.1681 123.731 49.0117 123.916 48.8636 124.055C48.8183 124.098 48.7943 124.113 48.7555 124.146C48.7046 124.112 48.66 124.086 48.6056 124.046C48.4087 123.902 48.2356 123.754 48.2356 123.754C48.0846 123.625 47.8876 123.56 47.6879 123.573C47.4883 123.587 47.3023 123.679 47.171 123.827C47.0397 123.976 46.9737 124.171 46.9877 124.368C47.0016 124.565 47.0942 124.748 47.2452 124.878C47.2452 124.878 47.453 125.057 47.7066 125.243C47.8334 125.335 47.9722 125.431 48.1242 125.517C48.2757 125.603 48.3964 125.71 48.7496 125.724C49.1398 125.74 49.3044 125.599 49.4656 125.492C49.6271 125.385 49.7672 125.264 49.9066 125.132C50.1851 124.87 50.4512 124.567 50.6601 124.308C50.9172 123.991 50.944 123.525 50.8493 123.232C50.7547 122.939 50.6006 122.745 50.456 122.581C50.1669 122.255 49.851 122.044 49.851 122.044C49.7698 121.988 49.6782 121.948 49.5814 121.927C49.4846 121.906 49.3845 121.903 49.2868 121.92L49.2872 121.92Z" fill="black"/>
<path d="M42.293 124.376C42.1949 124.362 42.0949 124.367 41.9989 124.392C41.9029 124.416 41.8127 124.459 41.7334 124.517C39.8613 125.903 38.8918 127.188 38.3991 128.164C38.1527 128.652 38.0261 129.062 37.9623 129.363C37.8986 129.663 37.8989 129.907 37.8989 129.907C37.904 130.104 37.9883 130.291 38.1333 130.427C38.2783 130.563 38.4721 130.637 38.6721 130.632C38.8722 130.627 39.0621 130.544 39.2001 130.401C39.3381 130.258 39.4128 130.067 39.4079 129.869C39.4079 129.869 39.4015 129.848 39.4397 129.668C39.4779 129.488 39.562 129.202 39.7506 128.828C40.1277 128.081 40.9248 126.978 42.6397 125.708C42.7998 125.59 42.9056 125.413 42.9338 125.218C42.962 125.022 42.9103 124.824 42.7902 124.666C42.67 124.508 42.4912 124.404 42.293 124.376Z" fill="black"/>
<path d="M54.342 113.332C54.247 113.304 54.1473 113.295 54.0487 113.305C53.9501 113.315 53.8544 113.344 53.7673 113.391C51.2037 114.761 48.9684 117.124 48.9684 117.124C48.8309 117.268 48.7568 117.459 48.7625 117.657C48.7682 117.854 48.8531 118.041 48.9986 118.177C49.0706 118.244 49.1554 118.297 49.248 118.331C49.3407 118.366 49.4394 118.383 49.5385 118.38C49.6376 118.377 49.7352 118.355 49.8257 118.315C49.9162 118.275 49.9978 118.218 50.0659 118.147C50.0659 118.147 52.2484 115.896 54.4866 114.7C54.6625 114.606 54.7933 114.447 54.8503 114.257C54.9073 114.068 54.8858 113.864 54.7905 113.691C54.7433 113.605 54.6794 113.529 54.6025 113.467C54.5255 113.406 54.437 113.36 54.342 113.332Z" fill="black"/>
<path d="M46.1538 109.732C45.5809 109.771 45.0081 109.971 44.5102 110.343C44.4311 110.402 44.3647 110.476 44.3146 110.56C44.2645 110.645 44.2317 110.738 44.2182 110.835C44.2047 110.932 44.2107 111.031 44.2358 111.125C44.2609 111.22 44.3047 111.309 44.3646 111.387C44.4855 111.544 44.6649 111.647 44.8632 111.674C45.0615 111.701 45.2625 111.649 45.422 111.53C45.9488 111.136 46.5864 111.129 47.066 111.391C47.5457 111.654 47.8995 112.142 47.7807 113.062C47.7554 113.257 47.81 113.455 47.9326 113.611C48.0551 113.768 48.2354 113.869 48.434 113.894C48.6326 113.919 48.8331 113.865 48.9914 113.745C49.1497 113.624 49.2529 113.446 49.2782 113.25C49.4622 111.826 48.7956 110.635 47.7985 110.089C47.2999 109.816 46.7268 109.694 46.1538 109.732Z" fill="black"/>
<path d="M29.1815 103.446C28.9297 103.444 28.7095 103.453 28.4948 103.489C28.28 103.525 28.037 103.537 27.763 103.854C27.3327 104.352 27.2722 104.872 27.1544 105.553C27.0366 106.234 26.9626 107.034 26.9276 107.833C26.8927 108.632 26.897 109.426 26.9461 110.094C26.9706 110.428 27.0058 110.729 27.0581 110.997C27.1104 111.264 27.1519 111.486 27.3315 111.755C27.5533 112.088 27.7314 112.11 27.9101 112.184C28.0889 112.259 28.2836 112.318 28.5109 112.379C28.9653 112.5 29.5448 112.616 30.2242 112.735C31.5828 112.972 33.331 113.21 35.0921 113.427C38.6142 113.86 42.1536 114.202 42.6709 114.247C42.6715 114.247 42.6721 114.247 42.6726 114.247C43.2188 114.293 43.6174 114.119 44.1182 113.912C44.6189 113.706 45.1614 113.429 45.677 113.131C46.1927 112.833 46.6771 112.517 47.0615 112.218C47.2536 112.069 47.42 111.926 47.5649 111.77C47.7097 111.614 47.8857 111.491 47.927 111.069C47.927 111.068 47.927 111.068 47.927 111.067C47.9892 110.416 47.7045 110.078 47.4108 109.616C47.117 109.155 46.7323 108.661 46.3214 108.186C45.9106 107.711 45.4761 107.259 45.0803 106.896C44.6845 106.533 44.4338 106.262 43.9335 106.097C43.7301 106.03 43.4809 105.974 43.0229 105.867C42.565 105.76 41.9556 105.623 41.2436 105.468C39.8196 105.158 37.9863 104.777 36.1502 104.43C34.3141 104.082 32.4783 103.768 31.0316 103.592C30.3082 103.504 29.6855 103.45 29.1819 103.446L29.1815 103.446ZM29.1694 104.936C29.5674 104.939 30.1543 104.987 30.8463 105.071C32.2303 105.24 34.0475 105.549 35.8656 105.893C37.6838 106.237 39.5062 106.615 40.9179 106.923C41.6238 107.076 42.2272 107.212 42.6746 107.317C43.122 107.421 43.4708 107.515 43.455 107.51C43.3299 107.469 43.712 107.676 44.0521 107.988C44.3922 108.299 44.7968 108.719 45.1727 109.153C45.5485 109.588 45.8982 110.042 46.1322 110.409C46.2418 110.582 46.3022 110.746 46.3438 110.858C46.281 110.917 46.2276 110.97 46.1263 111.049C45.8229 111.285 45.3806 111.576 44.913 111.847C44.4455 112.117 43.9483 112.369 43.5355 112.539C43.1229 112.709 42.7347 112.758 42.8018 112.764C42.3594 112.726 38.7734 112.379 35.2785 111.949C33.5308 111.734 31.7975 111.497 30.4868 111.269C29.8314 111.155 29.2794 111.041 28.9032 110.941C28.7487 110.9 28.6493 110.865 28.5684 110.835C28.5543 110.795 28.559 110.812 28.5398 110.715C28.5046 110.535 28.4727 110.281 28.4511 109.987C28.4079 109.399 28.4022 108.648 28.4349 107.898C28.4677 107.148 28.5395 106.394 28.6416 105.804C28.7161 105.373 28.8253 105.088 28.8723 104.951C28.9537 104.944 29.0292 104.935 29.1694 104.936Z" fill="black"/>
<path d="M90.7835 53.4884C90.5836 53.499 90.3962 53.5876 90.2625 53.7345C90.1288 53.8815 90.0597 54.0747 90.0704 54.2719L92.4176 97.1293C92.4284 97.3265 92.5181 97.5114 92.6671 97.6433C92.816 97.7752 93.012 97.8434 93.2119 97.8328C93.3109 97.8275 93.4078 97.8031 93.4973 97.7608C93.5867 97.7186 93.6668 97.6594 93.733 97.5866C93.7992 97.5138 93.8502 97.4288 93.8832 97.3366C93.9161 97.2443 93.9303 97.1466 93.9249 97.0489L91.5781 54.1915C91.5672 53.9944 91.4774 53.8095 91.3284 53.6776C91.1793 53.5458 90.9834 53.4777 90.7835 53.4884Z" fill="black"/>
<path d="M89.1585 4.06112C88.944 4.05116 88.5991 4.05863 87.9962 4.07141C87.3934 4.08436 86.5743 4.10597 85.5682 4.13528C83.556 4.1939 80.7968 4.28293 77.5405 4.39267C71.0279 4.61216 62.5276 4.91455 54.0504 5.22224C45.5731 5.52995 37.119 5.84294 30.6992 6.08358C24.2795 6.32419 19.9842 6.48743 19.5435 6.51116C17.156 6.6395 15.3147 7.46804 14.12 8.88673C12.9252 10.3054 12.401 12.2326 12.3577 14.4674C12.3489 14.9414 12.3875 16.5296 12.4589 19.1514C12.5303 21.7733 12.6364 25.3748 12.7684 29.6881C13.0324 38.3147 13.3995 49.7884 13.7983 61.9599C13.8048 62.1572 13.8905 62.3439 14.0365 62.479C14.1826 62.614 14.377 62.6862 14.577 62.6799C14.6761 62.6767 14.7736 62.6544 14.8639 62.6141C14.9542 62.5737 15.0356 62.5163 15.1034 62.4449C15.1712 62.3736 15.2241 62.2897 15.2591 62.1982C15.294 62.1067 15.3104 62.0093 15.3072 61.9116C14.9085 49.7408 14.5413 38.2678 14.2773 29.6431C14.1454 25.3307 14.0392 21.7304 13.9678 19.1116C13.8965 16.4927 13.8616 14.8013 13.8672 14.4943C13.9065 12.4738 14.3797 10.9083 15.2812 9.83786C16.1828 8.76728 17.5365 8.11015 19.626 7.99784C19.8633 7.98506 24.3379 7.81182 30.7571 7.57122C37.1762 7.33062 45.6297 7.01756 54.1062 6.70988C62.5827 6.40223 71.0823 6.09972 77.5924 5.88032C80.8474 5.77061 83.6051 5.68172 85.6129 5.62325C86.6168 5.594 87.4334 5.57249 88.0291 5.55971C88.6247 5.54693 89.0411 5.54596 89.0882 5.54812C90.7331 5.62414 92.0617 6.00496 92.9972 6.66004C93.9322 7.31469 94.5223 8.22662 94.7257 9.59805C94.7195 9.55392 94.7396 9.74066 94.7602 9.98058C94.7809 10.2231 94.8094 10.5676 94.845 11.0063C94.9162 11.8835 95.0158 13.1378 95.1394 14.7158C95.1548 14.9127 95.2489 15.0954 95.4009 15.2239C95.5529 15.3523 95.7505 15.416 95.9501 15.4008C96.0489 15.3933 96.1453 15.3666 96.2337 15.3224C96.3221 15.2781 96.4008 15.2171 96.4653 15.1428C96.5298 15.0686 96.5789 14.9825 96.6096 14.8896C96.6404 14.7966 96.6524 14.6986 96.6447 14.6011C96.521 13.0222 96.421 11.7669 96.3496 10.8873C96.3139 10.4475 96.2856 10.1018 96.2645 9.85545C96.2435 9.6091 96.2378 9.51548 96.2208 9.39252C96.2203 9.39025 96.2197 9.38798 96.2191 9.38572C95.9662 7.67484 95.1244 6.32382 93.8703 5.44568C92.6161 4.56755 90.9975 4.14547 89.1581 4.06047L89.1585 4.06112ZM98.7741 52.07C98.5745 52.0849 98.3891 52.1774 98.2587 52.3271C98.1282 52.4769 98.0634 52.6716 98.0784 52.8684C99.1669 67.1026 100.353 82.6434 101.359 95.8237C101.366 95.9213 101.393 96.0164 101.438 96.1037C101.483 96.191 101.544 96.2688 101.62 96.3325C101.695 96.3963 101.782 96.4448 101.876 96.4753C101.97 96.5058 102.07 96.5177 102.169 96.5103C102.368 96.4955 102.554 96.4031 102.684 96.2533C102.815 96.1036 102.88 95.9088 102.864 95.7119C101.858 82.5316 100.672 66.991 99.5837 52.7566C99.5763 52.6591 99.5494 52.5639 99.5047 52.4766C99.46 52.3893 99.3983 52.3116 99.3231 52.2478C99.2479 52.184 99.1607 52.1355 99.0665 52.105C98.9723 52.0745 98.8729 52.0626 98.7741 52.07ZM15.7771 98.5886C15.678 98.5919 15.5806 98.6144 15.4903 98.6548C15.4 98.6953 15.3187 98.7528 15.251 98.8242C15.1833 98.8956 15.1305 98.9796 15.0957 99.0712C15.0608 99.1627 15.0446 99.2601 15.0479 99.3579C15.3684 108.763 15.6597 117.128 15.88 123.226C15.9901 126.275 16.0825 128.758 16.152 130.521C16.1868 131.403 16.2157 132.105 16.2385 132.609C16.2612 133.114 16.2705 133.364 16.2904 133.545C16.5694 136.069 17.5178 138.072 19.1844 139.361C20.851 140.649 23.1501 141.18 25.992 141.033C27.9592 140.932 45.1124 140.005 62.1008 139.076C70.5951 138.611 79.0456 138.146 85.5301 137.784C92.0145 137.422 96.4525 137.169 97.1813 137.107C99.6691 136.894 101.883 136.505 103.42 134.998C104.958 133.491 105.598 131.024 105.268 127.112C105.251 126.915 105.156 126.733 105.003 126.605C104.85 126.478 104.652 126.415 104.453 126.431C104.253 126.448 104.069 126.542 103.939 126.692C103.81 126.843 103.747 127.038 103.763 127.235C104.076 130.941 103.458 132.861 102.356 133.941C101.254 135.021 99.4473 135.418 97.0509 135.623C96.5236 135.668 91.9275 135.935 85.4443 136.297C78.961 136.659 70.5106 137.124 62.0167 137.589C45.0288 138.518 27.8562 139.446 25.9132 139.545C23.3023 139.68 21.4094 139.188 20.1153 138.188C18.8213 137.188 18.0404 135.638 17.7911 133.384C17.7928 133.396 17.7693 133.042 17.7467 132.542C17.7242 132.043 17.695 131.343 17.6603 130.463C17.5909 128.702 17.4986 126.221 17.3886 123.173C17.1684 117.076 16.8774 108.712 16.5569 99.3076C16.5536 99.2099 16.5308 99.1138 16.4898 99.0247C16.4488 98.9357 16.3904 98.8554 16.318 98.7886C16.2456 98.7218 16.1606 98.6698 16.0678 98.6354C15.975 98.601 15.8762 98.585 15.7771 98.5883V98.5886Z" fill="black"/>
</g>
<defs>
<clipPath id="clip0_628_3313">
<rect width="110" height="137" fill="white"/>
</clipPath>
</defs>
</svg>
